<?xml version="1.0" standalone="no"?>
<!DOCTYPE svg PUBLIC "-//W3C//DTD SVG 1.1//EN" "http://www.w3.org/Graphics/SVG/1.1/DTD/svg11.dtd" >
<svg xmlns="http://www.w3.org/2000/svg">
<metadata>Generated by IcoMoon</metadata>
<defs>
<font id="icomoon" horiz-adv-x="1024">
<font-face units-per-em="1024" ascent="960" descent="-64" />
<missing-glyph horiz-adv-x="1024" />
<glyph unicode="&#x20;" horiz-adv-x="512" d="" />
<glyph unicode="&#xe900;" glyph-name="signin" d="M108.474 175.846h155.163v-239.846h-155.163v239.846zM108.474 960v-430.703h155.163v275.482h496.723v-868.779h155.166v1024zM355.562 425.834h-247.087v-146.552h247.087v-96.265l235.723 169.538-235.723 169.538z" />
<glyph unicode="&#xe901;" glyph-name="calendar" d="M592.844 421.080v0c-29.799 0-53.896-24.128-53.896-53.923 0-29.74 24.155-53.896 53.896-53.896v0c29.74 0 53.896 24.155 53.896 53.896 0.003 29.795-24.101 53.923-53.896 53.923zM431.156 474.948c29.754 0 53.896 24.142 53.896 53.896 0 29.775-24.142 53.889-53.896 53.889-29.747 0-53.889-24.114-53.889-53.889 0-29.754 24.142-53.896 53.889-53.896zM592.844 582.733v0c-29.799 0-53.896-24.114-53.896-53.889 0-29.754 24.101-53.896 53.896-53.896v0c29.74 0 53.896 24.142 53.896 53.896 0.003 29.775-24.101 53.889-53.896 53.889zM646.743 852.215h-269.476v-107.792h269.476v107.792zM754.535 474.948c29.727 0 53.896 24.142 53.896 53.896 0 29.775-24.114 53.889-53.896 53.889-29.799 0-53.896-24.114-53.896-53.889 0-29.754 24.155-53.896 53.896-53.896zM754.535 313.26c29.727 0 53.896 24.155 53.896 53.896 0 29.795-24.114 53.896-53.896 53.896-29.799 0-53.896-24.101-53.896-53.896 0-29.74 24.155-53.896 53.896-53.896zM431.156 313.26c29.754 0 53.896 24.155 53.896 53.896 0 29.795-24.114 53.923-53.896 53.923-29.775 0-53.889-24.128-53.889-53.923 0-29.74 24.142-53.896 53.889-53.896zM269.476 151.57c29.747 0 53.896 24.169 53.896 53.896 0 29.795-24.149 53.896-53.896 53.896-29.775 0-53.896-24.101-53.896-53.896 0-29.727 24.145-53.896 53.896-53.896zM916.208 852.215h-53.879v-107.792h53.879v-700.629h-808.417v700.625h53.889v107.795h-53.889c-59.529 0-107.792-48.246-107.792-107.795v-700.604c0-59.563 48.263-107.819 107.792-107.819h808.413c59.539 0 107.792 48.259 107.792 107.819v700.604c0.003 59.549-48.253 107.795-107.788 107.795zM269.476 313.26c29.747 0 53.896 24.155 53.896 53.896 0 29.795-24.149 53.923-53.896 53.923-29.775 0-53.896-24.128-53.896-53.923 0-29.74 24.145-53.896 53.896-53.896zM269.476 474.948c29.747 0 53.896 24.142 53.896 53.896 0 29.775-24.149 53.889-53.896 53.889-29.775 0-53.896-24.114-53.896-53.889 0-29.754 24.145-53.896 53.896-53.896zM431.156 151.57c29.754 0 53.896 24.169 53.896 53.896 0 29.795-24.142 53.896-53.896 53.896-29.747 0-53.889-24.101-53.889-53.896 0-29.727 24.142-53.896 53.889-53.896zM269.476 744.42c29.747 0 53.896 24.142 53.896 53.896v107.785c0 29.785-24.121 53.899-53.896 53.899-29.751 0-53.896-24.114-53.896-53.896v-107.785c0-29.758 24.145-53.899 53.896-53.899zM754.535 744.42c29.727 0 53.896 24.142 53.896 53.896v107.785c0 29.785-24.169 53.899-53.896 53.899-29.799 0-53.896-24.114-53.896-53.896v-107.785c0-29.758 24.155-53.899 53.896-53.899z" />
<glyph unicode="&#xe902;" glyph-name="key" d="M574.75 960h-125.388c-10.382 0-18.807-8.426-18.807-18.807v-559.253c-89.654-33.684-148.935-118.655-148.935-215.55 0-127.062 103.346-230.389 230.389-230.389s230.389 103.327 230.389 230.389c0 96.857-59.243 181.791-148.841 215.513v260.424h46.868c10.4 0 18.807 8.426 18.807 18.807v56.422c0 10.382-8.407 18.807-18.807 18.807h-46.868v22.418h46.868c10.4 0 18.807 8.426 18.807 18.807v37.615h13.917c10.4 0 18.807 8.426 18.807 18.807v56.422c0 10.382-8.407 18.807-18.807 18.807h-79.592v31.954c0 10.4-8.444 18.807-18.807 18.807zM654.381 871.643v-18.807h-13.917c-10.4 0-18.807-8.426-18.807-18.807v-37.615h-46.887c-10.382 0-18.807-8.426-18.807-18.807v-60.033c0-10.382 8.426-18.807 18.807-18.807h46.887v-18.807h-46.887c-10.382 0-18.807-8.426-18.807-18.807v-292.679c0-8.238 5.341-15.497 13.24-17.961 81.097-25.127 135.6-99.133 135.6-184.142 0-106.299-86.495-192.775-192.775-192.775-106.299 0-192.775 86.476-192.775 192.775 0 85.028 54.522 159.053 135.695 184.18 7.861 2.426 13.24 9.723 13.24 17.961v553.874h87.774v-31.954c0-10.382 8.426-18.807 18.807-18.807l79.611 0.019zM365.463 166.389c0-80.815 65.731-146.565 146.528-146.565s146.546 65.731 146.546 146.565c0 80.815-65.75 146.528-146.546 146.528-80.815 0-146.528-65.75-146.528-146.528zM620.922 166.389c0-60.052-48.861-108.951-108.932-108.951-60.052 0-108.913 48.88-108.913 108.951 0 60.052 48.861 108.913 108.913 108.913 60.070 0 108.932-48.88 108.932-108.913z" />
<glyph unicode="&#xe903;" glyph-name="hospital" d="M983.2 804.4l-156.6 124.8c-7.2 5.8-16.2 9-25.4 9h-578.2c-9.2 0-18.2-3.2-25.4-9l-160-127.4c-13.6-10.8-18.8-29-13-45.4s21.2-27.4 38.6-27.4h45.4v-729.6c0-22.6 18.2-40.8 40.8-40.8h399c22.6 0 40.8 18.2 40.8 40.8v201.6c0 42.8 28.4 77.6 63.4 77.6s63.4-34.8 63.4-77.6v-201.6c0-22.6 18.2-40.8 40.8-40.8h118.2c22.6 0 40.8 18.2 40.8 40.8v729.6h45.4c0.2 0 0.2 0 0.4 0 22.6 0 40.8 18.2 40.8 40.8-0.2 14.6-7.8 27.4-19.2 34.6zM237.2 856.6h549.6l57.4-45.8h-664.4l57.4 45.8zM834 40.2h-36.6v160.8c0 87.8-65 159.2-145 159.2s-145-71.4-145-159.2v-160.8h-317.4v688.8h644v-688.8zM297 540.8h103c22.6 0 40.8 18.2 40.8 40.8s-18.2 40.8-40.8 40.8h-102.8c-22.6 0-40.8-18.2-40.8-40.8-0.2-22.6 18.2-40.8 40.6-40.8zM572.2 515.6h32.8v-42.8c0-22.6 18.2-40.8 40.8-40.8s40.8 18.2 40.8 40.8v42.8h32.8c22.6 0 40.8 18.2 40.8 40.8s-18.2 40.8-40.8 40.8h-32.8v42.8c0 22.6-18.2 40.8-40.8 40.8s-40.8-18.2-40.8-40.8v-42.8h-32.8c-22.6 0-40.8-18.2-40.8-40.8s18.4-40.8 40.8-40.8zM297 363.8h103c22.6 0 40.8 18.2 40.8 40.8s-18.2 40.8-40.8 40.8h-102.8c-22.6 0-40.8-18.2-40.8-40.8-0.2-22.4 18.2-40.8 40.6-40.8zM297 187h103c22.6 0 40.8 18.2 40.8 40.8s-18.2 40.8-40.8 40.8h-102.8c-22.6 0-40.8-18.2-40.8-40.8-0.2-22.4 18.2-40.8 40.6-40.8z" />
<glyph unicode="&#xe904;" glyph-name="home" d="M35.372 360.792h83.409v-333.632c0-19.66 16.086-35.746 35.746-35.746h244.267c19.66 0 35.746 16.086 35.746 35.746v244.267h148.942v-244.267c0-19.66 16.086-35.746 35.746-35.746h232.351c19.66 0 35.746 16.086 35.746 35.746v333.632h101.282c14.299 0 27.405 8.937 32.767 22.043s2.382 28.597-7.744 38.726l-465.894 472.446c-13.703 13.703-36.341 14.299-50.045 0.595l-486.744-472.446c-10.724-10.129-13.703-25.617-8.341-39.321 5.362-13.701 18.468-22.043 32.767-22.043zM521.521 818.344l381.293-386.060h-51.237c-19.66 0-35.746-16.086-35.746-35.746v-333.632h-160.858v244.267c0 19.66-16.086 35.746-35.746 35.746h-220.432c-19.66 0-35.746-16.086-35.746-35.746v-244.267h-172.774v333.632c0 19.66-16.086 35.746-35.746 35.746h-30.979l397.974 386.060z" />
<glyph unicode="&#xe905;" glyph-name="medical-list" d="M702.701 765.953v22.447c0 25.489-20.686 46.142-46.142 46.142h-75.73c6.308 11.399 9.894 25.521 9.894 39.866-0.032 47.167-38.393 85.592-85.528 85.592s-85.464-38.425-85.464-85.592c0-14.345 3.586-28.467 9.894-39.866h-62.121c-25.489 0-46.142-20.654-46.142-46.142v-22.447h-102.916c-38.649 0-69.966-31.349-69.966-69.998v-689.925c0-38.649 31.317-70.030 69.966-70.030h587.073c38.649 0 69.998 31.349 69.998 70.030v689.925c0 38.649-31.349 69.998-69.998 69.998h-102.819zM454.282 874.376c0 28.114 22.831 51.041 50.881 51.041 28.114 0 50.945-22.927 50.945-51.041 0-16.075-7.493-29.876-19.213-39.866h-63.434c-11.688 10.023-19.181 23.792-19.181 39.866zM805.521 47.657c0-23.76-19.277-43.036-43.036-43.036h-501.001c-23.76 0-43.036 19.277-43.036 43.036v605.261c0 23.792 19.277 43.036 43.036 43.036h59.815c0-18.924 15.338-34.295 34.262-34.295h312.813c18.956 0 34.262 15.338 34.262 34.295h59.847c23.728 0 43.036-19.277 43.036-43.036v-605.261zM408.3 540.589c0-33.583-27.225-60.808-60.808-60.808s-60.808 27.225-60.808 60.808c0 33.583 27.225 60.808 60.808 60.808s60.808-27.225 60.808-60.808zM693.447 574.531h-207.368c-19.085 0-34.583-15.21-34.583-34.295s15.466-34.295 34.583-34.295h207.432c19.085 0 34.519 15.21 34.519 34.295s-15.466 34.295-34.583 34.295zM408.3 368.092c0-33.583-27.225-60.808-60.808-60.808s-60.808 27.225-60.808 60.808c0 33.583 27.225 60.808 60.808 60.808s60.808-27.225 60.808-60.808zM693.447 403.123h-207.368c-19.085 0-34.583-15.946-34.583-35.031s15.466-34.967 34.583-34.967h207.432c19.085 0 34.519 15.882 34.519 34.967s-15.466 35.031-34.583 35.031zM408.268 183.747c0-33.566-27.21-60.776-60.776-60.776s-60.776 27.21-60.776 60.776c0 33.566 27.21 60.776 60.776 60.776s60.776-27.21 60.776-60.776zM693.447 218.874h-207.368c-19.085 0-34.583-15.946-34.583-35.031s15.466-34.967 34.583-34.967h207.432c19.085 0 34.519 15.914 34.519 34.967 0 19.085-15.466 35.031-34.583 35.031z" />
<glyph unicode="&#xe906;" glyph-name="stethoscope" d="M980.4 861.8c-28.8 48-80 76.4-137 76.4-22.6 0-41-18.6-41-41.4 0-23 18.4-41.4 41-41.4 28.2 0 53.2-13.6 67-36.6 12.2-20.2 13.2-43.6 2.8-64.6l-146.2-238.6c-0.6-0.8-1-1.8-1.6-2.8-13-25.2-38.6-40.4-68.6-40.6-0.2 0-0.4 0-0.6 0-29.8 0-55.6 15-68.8 40-0.4 1-1 1.8-1.6 2.6l-149.8 238.8c-10.6 21-9.8 44.6 2.2 65 13.8 23.2 38.8 37 67.2 37 22.6 0 41 18.6 41 41.4s-18.4 41.4-41 41.4c-57.4 0-108.8-28.8-137.6-77.2-27-45.6-28.4-101-3.6-147.8 0.4-1 1-1.8 1.6-2.6l150-238.8c20.4-37.6 54.8-64.4 95.4-76-13.6-144.8-60.8-335.2-133.4-353-24.8-6-95.4 3.4-225.4 213 26.6 28.2 43 66.4 43 108.4 0 87-70.2 157.8-156.6 157.8s-156.6-70.8-156.6-157.8c0-87 70.2-157.6 156.6-157.6 15 0 29.6 2.2 43.4 6.2 105.6-170.6 199-254.2 284-254.2 10.4 0 20.6 1.2 30.8 3.8 148 36.4 187 327.2 196.2 431.6 44.6 10.4 82.6 39 104.2 79.6l146.4 238.8c0.6 0.8 1 1.8 1.6 2.8 24 46.4 22.2 101.2-5 146.4zM104.4 364c0 41.2 33.4 74.8 74.6 74.8s74.6-33.6 74.6-74.8c0-41.2-33.4-74.8-74.6-74.8-41.2 0.2-74.6 33.6-74.6 74.8z" />
<glyph unicode="&#xe907;" glyph-name="sringe" d="M1019.399-0.87l-230.86 208.395c10.045 13.617 17.19 28.338 20.314 42.611l0.412 2.75c7.295 89.018 1.104 94.611-6.098 101.064l-486.617 439.386c-14.216 12.869-36.251 11.728-49.12-2.507l-18.088-20.015-45.173 40.777 8.773 9.745c29.704 32.903 35.839 70.781 14.497 90.028-21.324 19.229-58.36 9.297-88.064-23.606l-112.231-124.24c-29.704-32.903-35.783-70.762-14.515-90.010 21.361-19.248 58.398-9.334 88.102 23.569l8.773 9.708 45.173-40.796-18.107-20.033c-12.832-14.235-11.709-36.251 2.507-49.101l486.654-439.442c21.268-19.154 103.047 4.639 103.87 4.938 13.879 4.601 27.815 13.187 40.31 24.541l230.841-208.433c5.705-5.125 14.497-4.695 19.659 1.047 5.125 5.612 4.714 14.422-1.010 19.622zM771.236 256.346c-5.387-21.81-33.726-47.455-54.732-54.357-22.128-7.351-54.937-10.999-66.478-10.344l-477.788 431.493 18.069 19.996c12.832 14.235 11.728 36.288-2.507 49.157l-81.33 73.418-36.756-40.703c-11.429-12.645-22.184-17.676-27.759-19.079 0.804 5.705 4.732 16.91 16.161 29.573l112.231 124.278c11.41 12.682 22.166 17.714 27.759 19.079-0.786-5.668-4.714-16.891-16.161-29.573l-36.737-40.665 81.33-73.456c14.253-12.813 36.288-11.709 49.12 2.525l18.107 20.033 69.191-62.476c-0.655-0.505-1.328-0.804-1.889-1.459l-75.663-83.781c-5.144-5.668-4.695-14.459 1.010-19.622 5.686-5.144 14.497-4.695 19.659 0.991l75.644 83.8c0.542 0.636 0.767 1.365 1.197 2.058l19.678-17.751c-0.655-0.486-1.365-0.786-1.945-1.384l-56.995-63.149c-5.163-5.705-4.732-14.515 0.973-19.659 5.724-5.163 14.515-4.676 19.697 1.010l56.976 63.149c0.58 0.617 0.823 1.309 1.216 2.020l19.659-17.751c-0.617-0.468-1.347-0.767-1.889-1.384l-75.681-83.8c-5.125-5.686-4.695-14.478 1.010-19.622 5.686-5.181 14.515-4.732 19.659 0.991l75.644 83.762c0.58 0.655 0.804 1.384 1.216 2.076l19.678-17.733c-0.655-0.505-1.347-0.804-1.945-1.403l-23.643-26.187c-1.253-0.954-2.581-1.777-3.704-3.012l-61.073-67.152c-7.463-8.23-8.698-19.304-2.656-24.784l232.413-214.923c0.337-0.318 0.842-0.355 1.197-0.599l42.779-37.018c0 0 35.465 2.563 60.68 26.936 30.097 29.199 25.57 67.919 25.57 67.919l-41.862 39.356c-0.112 0.094-0.15 0.262-0.224 0.337l-9.558 8.698-212.753 196.873 13.449 14.889c0.561 0.636 0.804 1.328 1.216 2.039l268.794-242.719c8.361-25.888 8.885-38.234 0.748-70.912zM673.95 254.438c3.778-3.517 3.984-9.446 0.468-13.225-1.871-1.945-4.34-2.974-6.865-2.974-2.263 0-4.545 0.842-6.36 2.525l-215.466 200.352c-3.778 3.517-3.984 9.446-0.468 13.225 3.535 3.76 9.446 3.984 13.225 0.468l215.466-200.371z" />
<glyph unicode="&#xe908;" glyph-name="doctor" d="M703.854 768.425c0-105.804-85.771-191.575-191.575-191.575s-191.575 85.771-191.575 191.575c0 105.804 85.771 191.575 191.575 191.575s191.575-85.771 191.575-191.575zM706.038 512.776h-2.407l-8.179-106.285c-1.159-14.865-12.012-27.167-26.61-30.131l-60.976-12.414 14.999-44.217c2.897-8.536 2.206-17.852-1.894-25.875 0 0-59.193-115.935-78.939-154.557-0.067-0.134-9.717-15.333-29.017-15.333-23.847 0-30.287 15.222-30.332 15.333-19.768 38.6-78.961 154.557-78.961 154.557-4.078 8.023-4.769 17.339-1.894 25.83l14.999 44.217-61.021 12.414c-14.575 2.942-25.451 15.244-26.566 30.087l-8.201 106.351h-2.407c-132.605 0-240.071-107.488-240.071-240.071v-269.444c0-37.152 30.109-67.261 67.261-67.261h732.447c37.152 0 67.261 30.109 67.261 67.261v270.158c-0.134 132.204-107.287 239.38-239.491 239.38zM791.774 52.425h-50.59v-49.699c0-18.409-14.754-33.296-33.118-33.296-18.386 0-33.118 14.887-33.118 33.296v49.699h-49.744c-18.364 0-33.296 14.709-33.296 33.118s14.932 33.14 33.296 33.14h49.744v50.613c0 18.409 14.731 33.341 33.118 33.341 18.364 0 33.118-14.932 33.118-33.341v-50.613h50.59c18.364 0 33.296-14.731 33.296-33.14s-14.91-33.118-33.296-33.118zM557.476 421.78l73.479 14.932 5.861 76.086h-249.052l5.861-76.086 73.456-14.932c9.405-1.917 17.473-7.756 22.264-16.069 4.769-8.268 5.75-18.23 2.674-27.301l-22.621-66.748 42.879-83.953 42.902 83.953-22.643 66.748c-3.076 9.048-2.095 19.033 2.697 27.301 4.769 8.313 12.882 14.152 22.242 16.069z" />
<glyph unicode="&#xe909;" glyph-name="medicine" d="M833.315 366.42h-322.118l-47.151-47.151h90.199v-287.081h-219.709c-66.897 0-123.082 46.055-138.932 108.083-1.704-0.037-3.409-0.122-5.125-0.122-14.755 0-29.498 1.437-44.034 4.273 14.986-90.296 93.596-159.385 188.080-159.385h498.779c105.149 0 190.697 85.536 190.697 190.685s-85.536 190.697-190.685 190.697zM789.865 34.587h-157.888c-11.164 0-20.209 9.045-20.209 20.209s9.045 20.209 20.209 20.209h157.888c11.164 0 20.209-9.045 20.209-20.209s-9.045-20.209-20.209-20.209zM870.422 34.587h-7.84c-11.164 0-20.209 9.045-20.209 20.209s9.045 20.209 20.209 20.209h7.84c11.164 0 20.209-9.045 20.209-20.209s-9.045-20.209-20.209-20.209zM678.008 855.302c-35.877 35.89-83.771 55.648-134.842 55.648s-98.952-19.759-134.842-55.648l-352.688-352.688c-35.877-35.877-55.636-83.759-55.636-134.83s19.759-98.952 55.648-134.842c37.18-37.18 85.999-55.758 134.842-55.758 48.831 0 97.674 18.59 134.842 55.758l352.688 352.688c35.89 35.89 55.648 83.771 55.648 134.842s-19.771 98.952-55.661 134.83zM291.987 266.287c-55.977-55.965-147.041-55.965-202.993 0-26.978 26.978-41.843 63.026-41.843 101.497s14.865 74.519 41.843 101.497l155.356 155.356 202.993-202.993-155.356-155.356zM612.255 589.952l-111.638-111.638c-3.944-3.944-9.119-5.917-14.293-5.917s-10.348 1.972-14.293 5.917c-7.889 7.889-7.889 20.684 0 28.573l111.65 111.638c7.889 7.889 20.684 7.889 28.573 0s7.889-20.684 0-28.573zM669.218 646.915l-5.539-5.539c-3.944-3.944-9.119-5.917-14.293-5.917s-10.336 1.972-14.293 5.917c-7.889 7.889-7.889 20.684 0 28.573l5.539 5.539c7.889 7.889 20.684 7.889 28.573 0 7.901-7.889 7.901-20.684 0.012-28.573z" />
<glyph unicode="&#xe90a;" glyph-name="heartbeat" d="M975.831 798.999c-43.854 57.626-112.853 90.731-211.053 101.265-7.957 0.811-16.35 1.299-24.976 1.299-87.076 0-173.818-40.848-227.801-105.744-54.027 64.895-140.736 105.744-227.764 105.744-8.621 0-16.967-0.49-25.081-1.299-98.049-10.535-167.035-43.656-210.915-101.248-43.51-57.091-57.693-134.492-42.123-230.037 5.816-35.456 21.908-72.891 45.024-111.239h145.014l15.277 243.007c1.206 19.173 15.851 34.792 34.906 37.226 19.059 2.434 37.157-8.997 43.147-27.25l115.298-351.414 63.994 253.933c4.47 17.73 20.375 30.187 38.658 30.273 0.064 0 0.129 0 0.193 0 18.203 0 34.13-12.278 38.752-29.901l40.818-155.665 37.011 60.292c6.252 10.193 16.733 17.060 28.579 18.719s23.808-2.055 32.631-10.135l42.315-38.765h75.256c22.125 0 40.064-17.937 40.064-40.064s-17.939-40.064-40.064-40.064h-90.834c-10.014 0-19.672 3.758-27.063 10.526l-17.993 16.483-60.696-98.89c-8.393-13.678-24.141-21.028-40.012-18.676-15.873 2.352-28.811 13.946-32.883 29.469l-25.102 95.721-59.722-236.951c-4.358-17.296-19.622-29.624-37.445-30.249-0.473-0.017-0.946-0.026-1.417-0.026-17.253 0-32.644 11.076-38.058 27.575l-93.442 284.797-4.562-72.551c-1.329-21.108-18.835-37.55-39.986-37.55h-125.953c69.496-86.861 162.813-174.635 244.746-251.716l3.298-3.1c40.16-37.845 74.858-70.485 97.451-94.807 3.057-3.41 30.591-33.552 60.733-33.552 30.333 0 57.272 30.591 59.703 33.521 24.030 26.042 62.995 62.954 101.487 99.352 142.604 135.283 320.090 303.635 342.589 441.719 15.632 95.478 1.544 172.845-41.999 229.97z" />
<glyph unicode="&#xe90b;" glyph-name="pencil-list" d="M987.2 640.6l-128.2 104.6c-17.4 14.2-42.8 11.8-57.2-5.4l-68.2-81.8v239.6c0 22.6-18.2 40.8-40.8 40.8h-629.8c-22.6 0-40.8-18.2-40.8-40.8v-898.4c0-22.6 18.2-40.8 40.8-40.8h629.6c22.6 0 40.8 18.2 40.8 40.8v273l259.2 310.6c7.2 8.4 20 35-5.4 57.8zM651.8 40h-548v816.6h548v-296.6l-200.6-240.4c-3.8-4.6-6.6-9.8-8.2-15.6l-50.8-190c-4.2-15.4 1-32 13.4-42 19-15.4 38-8.2 43.6-5.4l179.2 85.6c5.2 2.6 10 6.2 13.8 10.6l9.6 11.6v-134.4zM534.8 198l-40.8-19.6 11.6 43.2 29.2-23.6zM601 240.8l-65.2 52.6 302.8 362.8 65-53-302.6-362.4zM221.4 657.8h313c22.6 0 40.8 18.2 40.8 40.8s-18.2 40.8-40.8 40.8h-313c-22.6 0-40.8-18.2-40.8-40.8 0-22.4 18.2-40.8 40.8-40.8zM523.4 492.6c0 22.6-18.2 40.8-40.8 40.8h-261.2c-22.6 0-40.8-18.2-40.8-40.8s18.2-40.8 40.8-40.8h261.2c22.4-0.2 40.8 18.2 40.8 40.8z" />
<glyph unicode="&#xe90c;" glyph-name="bandage" d="M595.935 186.164l-345.765 345.765 177.894 177.894 345.765-345.765-177.894-177.894zM952.39 888.39c-95.482 95.482-250.288 95.482-345.769 0l-130.815-130.815 345.769-345.769 130.815 130.815c95.479 95.479 95.479 250.288 0 345.769zM667.091 678.326l-47.741 47.741 63.015 63.015 47.741-47.741-63.015-63.015zM790.067 555.35l-47.741 47.741 63.015 63.015 47.741-47.741-63.015-63.015zM833.356 721.616l-47.741 47.741 63.015 63.015 47.741-47.741-63.015-63.015zM71.612 353.381c-95.482-95.482-95.482-250.288 0-345.769s250.288-95.482 345.769 0l130.813 130.813-345.767 345.769-130.815-130.813zM175.371 63.631l-47.741 47.741 63.015 63.015 47.741-47.741-63.015-63.015zM356.912 217.676l47.741-47.741-63.015-63.015-47.741 47.741 63.015 63.015zM281.676 292.912l-63.015-63.015-47.741 47.741 63.015 63.015 47.741-47.741z" />
<glyph unicode="&#xe90d;" glyph-name="sringe2" d="M977.902 714.199l46.098 46.098-199.703 199.703-46.096-46.098 76.8-76.802-91.76-91.76-122.887 122.887-46.098-46.098 53.765-53.767-93.861-93.861 92.17-92.17-46.098-46.098-92.17 92.17-93.694-93.696 92.17-92.168-46.098-46.098-92.17 92.17-90.621-90.623 92.17-92.168-46.098-46.098-92.17 92.17-116.744-116.744 69.122-69.12-183.928-183.928 46.098-46.098 183.928 183.928 69.12-69.12 533.215 533.213 53.767-53.765 46.096 46.098-122.887 122.887 91.762 91.76z" />
<glyph unicode="&#xe90e;" glyph-name="medical-bag" d="M1024 84.748v463.481h-1024v-463.481c0-21.195 17.109-38.304 38.304-38.304h947.392c21.195 0 38.304 17.109 38.304 38.304zM677.474 281.887c0-21.196-17.108-38.304-38.304-38.304h-73.544v-74.566c0-21.195-17.109-38.304-38.304-38.304h-30.643c-21.195 0-38.304 17.109-38.304 38.304v74.566h-73.544c-21.196 0-38.304 17.108-38.304 38.304v30.643c0 21.195 17.108 38.304 38.304 38.304h73.544v73.544c0 21.195 17.109 38.304 38.304 38.304h30.643c21.195 0 38.304-17.109 38.304-38.304v-73.544h73.544c21.196 0 38.304-17.109 38.304-38.304v-30.643zM1024 674.633c0 21.195-17.109 38.304-38.304 38.304h-207.098v98.314c0 21.195-17.108 38.304-38.304 38.304h-456.587c-21.195 0-38.304-17.109-38.304-38.304v-98.314h-207.098c-21.195 0-38.304-17.109-38.304-38.304v-81.716h1024v81.716zM701.989 712.938h-379.978v60.010h379.85v-60.010h0.128z" />
<glyph unicode="&#xe90f;" glyph-name="sringe3" d="M403.2 824.4c-16 16-41.8 16-57.8 0l-84.6-84.6-61 61 50 50c16 16 16 42 0 58s-42 16-58 0l-157.6-157.6c-16-16-16-42 0-58s42-16 58 0l50 50 61-61-84.6-84.6c-16-16-16-41.8 0-57.8l378.2-378.2c7.6-7.6 18-12 28.8-12 0.2 0 0.4 0 0.6 0l213.6 3 192.8-192.8c16-16 41.8-16 57.8 0s16 41.8 0 57.8l-193.2 193.2-3.8 207.2c-0.2 10.6-4.4 20.6-12 28.2l-378.2 378.2zM715 233.8l-170.4-2.4 63 63c16 16 16 41.8 0 57.8s-41.8 16-57.8 0l-64-64.2-56.6 56.6 64.2 64.2c16 16 16 41.8 0 57.8s-41.8 16-57.8 0l-64.2-64.2-56.4 56.4 64.2 64.2c16 16 16 41.8 0 57.8s-41.8 16-57.8 0l-64.2-64.2-52.2 52.2 169.2 169.2 337.8-337.8 3-166.4z" />
<glyph unicode="&#xe910;" glyph-name="medical-11" d="M815.2 379.4l-429.6 298.2c-104.8 72.8-249.2 46.8-322-58-72.8-104.6-46.8-249 58-321.8l429.6-298.2c104.8-72.8 249.2-46.8 322 58 72.8 104.6 46.8 249-58 321.8zM168.6 365.6c-67.4 46.8-84.2 139.6-37.2 207 46.8 67.4 139.8 84 207.2 37.2l181-125.6-170-244.4-181 125.8zM805.4 104.6c-46.8-67.4-139.8-84-207.2-37.2l-181 125.6 170 244.4 181-125.6c67.4-47 84-139.8 37.2-207.2zM784 938.4c-120.6 0-218.4-97.6-218.4-218.2 0-120.4 97.8-218.2 218.4-218.2s218.4 97.6 218.4 218.2c-0.2 120.6-97.8 218.2-218.4 218.2zM784 584.6c-60.6 0-111.8 39.8-129.4 94.4h258.8c-17.6-54.6-69-94.4-129.4-94.4zM654.6 761.4c17.4 54.8 68.8 94.6 129.4 94.6s111.8-39.8 129.4-94.4h-258.8z" />
<glyph unicode="&#xe911;" glyph-name="medical-12" d="M534.898 302.365v342.060c0 9.024-7.316 16.34-16.34 16.34h-255.222c-9.024 0-16.34-7.316-16.34-16.34s7.316-16.34 16.34-16.34h238.882v-322.451h-331.478v322.451h27.234c9.024 0 16.34 7.316 16.34 16.34s-7.316 16.34-16.34 16.34h-43.574c-9.024 0-16.34-7.316-16.34-16.34v-342.060c0-16.218 13.194-29.413 29.413-29.413h338.014c16.218 0 29.413 13.197 29.413 29.413zM951.303 568.782c0 50.721-41.265 91.986-91.986 91.986-25.225 0-48.997-10.375-66.111-28.060-17.112 17.685-40.886 28.060-66.111 28.060-50.721 0-91.986-41.265-91.986-91.986 0-20.201 6.432-39.378 18.598-55.457l123.159-162.785v-215.223c0-91.883-74.238-166.635-165.491-166.635-91.883 0-166.635 74.752-166.635 166.635v10.578h20.698c9.024 0 16.34 7.316 16.34 16.34v45.357h23.707c52.259 0 94.774 42.516 94.774 94.774v477.14c0 52.259-42.516 94.774-94.774 94.774h-75.534v27.801c0 31.938-25.981 57.919-57.917 57.919h-71.109c-31.936 0-57.917-25.981-57.917-57.917v-27.801h-75.534c-52.259 0-94.774-42.516-94.774-94.774v-477.14c0-52.259 42.516-94.774 94.774-94.774h23.707v-45.357c0-9.024 7.316-16.34 16.34-16.34h74.077c9.024 0 16.34 7.316 16.34 16.34v45.357h77.085v-45.357c0-9.024 7.316-16.34 16.34-16.34h20.698v-10.578c0-109.904 89.413-199.316 199.316-199.316 53.196 0 103.062 20.75 140.417 58.429 37.243 37.57 57.756 87.604 57.756 140.887v215.223l123.157 162.785c12.168 16.075 18.598 35.252 18.598 55.455zM275.687 902.083c0 13.916 11.321 25.236 25.236 25.236h71.109c13.916 0 25.236-11.321 25.236-25.236v-27.801h-121.581v27.801zM391.362 240.272h-109.766c-9.024 0-16.34-7.316-16.34-16.34v-45.357h-41.396v45.357c0 9.024-7.316 16.34-16.34 16.34h-40.047c-34.239 0-62.094 27.855-62.094 62.094v477.14c0 34.239 27.855 62.094 62.094 62.094h338.014c34.239 0 62.094-27.855 62.094-62.094v-477.14c0-34.239-27.855-62.094-62.094-62.094h-40.047c-9.024 0-16.34-7.316-16.34-16.34v-45.357h-41.396v45.357c0 9.024-7.316 16.34-16.34 16.34zM906.643 533.042l-113.437-149.935-113.437 149.938c-7.837 10.355-11.979 22.713-11.979 35.738 0 32.7 26.604 59.305 59.305 59.305 21.493 0 41.354-11.693 51.834-30.517 2.885-5.181 8.349-8.392 14.277-8.392s11.393 3.211 14.277 8.392c10.477 18.824 30.339 30.517 51.834 30.517 32.7 0 59.305-26.604 59.305-59.305 0-13.024-4.142-25.382-11.979-35.74z" />
<glyph unicode="&#xe912;" glyph-name="virus" d="M972.026 499.974c-22.86 0-42.305-14.84-49.245-35.387h-235.759c-1.137 12.085-3.486 23.82-6.951 35.075l87.033 36.050c9.893-11.313 24.269-17.811 39.204-17.811 6.615 0 13.339 1.272 19.821 3.957 26.478 10.968 39.093 41.431 28.128 67.907-5.312 12.825-15.302 22.816-28.128 28.13-12.825 5.31-26.951 5.31-39.779 0-12.828-5.312-22.816-15.302-28.13-28.128-3.118-7.529-4.353-15.504-3.808-23.404l-87.089-36.074c-5.629 10.581-12.284 20.535-19.872 29.696l166.733 166.733c7.093-3.528 14.955-5.408 23.107-5.408 13.883 0 26.936 5.408 36.749 15.223 9.818 9.818 15.225 22.869 15.225 36.753s-5.405 26.934-15.223 36.751c-20.268 20.265-53.235 20.263-73.502 0-16.158-16.161-19.39-40.385-9.776-59.819l-166.773-166.773c-9.163 7.588-19.118 14.245-29.698 19.874l36.066 87.073c1.152-0.077 2.305-0.13 3.455-0.13 20.403 0 39.803 12.091 48.084 32.085 5.312 12.825 5.312 26.954 0.002 39.779-5.312 12.825-15.302 22.816-28.13 28.128-26.48 10.968-56.941-1.652-67.907-28.128-5.312-12.825-5.312-26.954 0-39.779 3.118-7.529 7.885-14.042 13.854-19.244l-36.050-87.033c-11.255 3.468-22.992 5.817-35.077 6.951v235.759c20.546 6.94 35.387 26.385 35.387 49.245-0.002 28.659-23.318 51.974-51.976 51.974s-51.974-23.315-51.974-51.974c0-22.86 14.84-42.305 35.387-49.245v-235.761c-12.085-1.137-23.82-3.486-35.075-6.951l-36.050 87.033c5.969 5.202 10.735 11.715 13.854 19.244 5.312 12.825 5.312 26.954 0 39.779-10.968 26.478-41.436 39.098-67.909 28.13-26.476-10.968-39.093-41.429-28.128-67.909 8.283-19.996 27.679-32.082 48.084-32.082 1.148 0 2.302 0.053 3.455 0.13l36.068-87.073c-10.583-5.629-20.535-12.286-29.698-19.874l-166.733 166.733c3.528 7.093 5.408 14.955 5.408 23.11 0 13.883-5.405 26.934-15.223 36.751-20.268 20.265-53.237 20.265-73.5 0-9.818-9.818-15.225-22.869-15.225-36.751s5.405-26.936 15.223-36.751 22.869-15.223 36.751-15.223c8.154 0 16.015 1.88 23.107 5.408l166.733-166.733c-7.588-9.163-14.245-19.118-19.874-29.698l-87.089 36.074c0.544 7.9-0.692 15.875-3.808 23.404-5.312 12.825-15.302 22.816-28.13 28.128s-26.956 5.31-39.777 0c-12.828-5.312-22.816-15.302-28.13-28.13-5.31-12.825-5.31-26.954 0-39.779 5.312-12.825 15.302-22.816 28.13-28.128 6.412-2.656 13.148-3.983 19.887-3.983s13.478 1.329 19.889 3.985c7.529 3.118 14.042 7.885 19.244 13.854l87.033-36.050c-3.466-11.255-5.814-22.99-6.951-35.075h-235.759c-6.94 20.546-26.385 35.387-49.245 35.387-28.659-0.004-51.974-23.32-51.974-51.979s23.315-51.974 51.974-51.974c22.86 0 42.305 14.84 49.245 35.387h235.761c1.137-12.085 3.486-23.82 6.951-35.075l-87.033-36.050c-5.202 5.969-11.715 10.735-19.244 13.854-12.821 5.308-26.949 5.31-39.777 0-12.828-5.312-22.816-15.302-28.13-28.128-5.31-12.825-5.31-26.954 0-39.779 5.312-12.825 15.302-22.816 28.13-28.128 6.412-2.656 13.151-3.985 19.889-3.985 6.737 0 13.476 1.329 19.887 3.983 12.828 5.312 22.816 15.302 28.13 28.128 3.118 7.529 4.353 15.504 3.811 23.404l87.089 36.074c5.629-10.581 12.286-20.535 19.874-29.698l-166.737-166.733c-7.093 3.528-14.955 5.408-23.107 5.408-13.883 0-26.936-5.408-36.749-15.223-9.818-9.815-15.225-22.869-15.225-36.751s5.405-26.936 15.223-36.751c10.134-10.134 23.441-15.201 36.751-15.199 13.308 0 26.62 5.067 36.749 15.199 9.818 9.818 15.225 22.869 15.225 36.753 0 8.154-1.878 16.015-5.408 23.107l166.733 166.733c9.163-7.588 19.118-14.245 29.698-19.874l-36.068-87.073c-21.639 1.451-42.791-10.835-51.541-31.954-10.963-26.478 1.654-56.939 28.13-67.907 6.485-2.685 13.206-3.957 19.821-3.957 20.405 0 39.806 12.091 48.086 32.085 5.312 12.825 5.312 26.954 0.002 39.779-3.118 7.531-7.885 14.042-13.856 19.246l36.050 87.031c11.255-3.468 22.99-5.817 35.075-6.951v-235.761c-20.546-6.94-35.387-26.385-35.387-49.245 0-28.659 23.315-51.974 51.974-51.974s51.974 23.315 51.974 51.974c0 22.86-14.84 42.305-35.387 49.245v235.759c12.085 1.137 23.822 3.486 35.077 6.951l36.048-87.031c-5.969-5.202-10.738-11.715-13.856-19.246-5.31-12.825-5.31-26.954 0.002-39.779 8.28-19.996 27.681-32.085 48.086-32.085 6.615 0 13.339 1.272 19.821 3.957 12.828 5.312 22.816 15.302 28.13 28.128 5.31 12.825 5.31 26.954-0.002 39.781-8.747 21.117-29.902 33.403-51.538 31.952l-36.066 87.073c10.581 5.629 20.535 12.286 29.698 19.874l166.773-166.773c-9.612-19.434-6.383-43.658 9.776-59.821 10.134-10.134 23.441-15.201 36.751-15.199 13.308 0 26.62 5.067 36.749 15.199 9.818 9.818 15.225 22.869 15.225 36.753s-5.405 26.936-15.223 36.751c-9.815 9.815-22.869 15.223-36.751 15.223-8.154 0-16.015-1.878-23.107-5.408l-166.733 166.733c7.588 9.163 14.243 19.115 19.872 29.696l87.089-36.074c-0.544-7.9 0.692-15.875 3.808-23.404 5.312-12.825 15.302-22.816 28.13-28.128 6.412-2.656 13.151-3.983 19.889-3.983 6.737 0 13.478 1.329 19.889 3.985 12.825 5.312 22.813 15.302 28.126 28.128 10.968 26.476-1.648 56.939-28.126 67.909-21.121 8.747-44.764 2.479-59.038-13.847l-87.020 36.043c3.466 11.255 5.814 22.99 6.951 35.075h235.761c6.94-20.546 26.385-35.387 49.245-35.387 28.659 0 51.974 23.315 51.974 51.974s-23.311 51.974-51.97 51.974zM788.869 577.070c1.922 4.64 5.536 8.252 10.176 10.174 2.32 0.962 4.755 1.442 7.195 1.442 2.437 0 4.875-0.48 7.195-1.442 4.638-1.922 8.25-5.534 10.171-10.174h0.002c3.966-9.577-0.599-20.597-10.174-24.563-9.579-3.963-20.597 0.597-24.563 10.174-1.924 4.64-1.924 9.751-0.002 14.389zM616.508 749.432c2.995 7.232 10.012 11.605 17.395 11.605 2.393 0 4.826-0.46 7.168-1.431 4.64-1.922 8.252-5.534 10.176-10.174 1.92-4.64 1.92-9.749 0-14.387-3.968-9.579-14.984-14.144-24.563-10.174-4.64 1.922-8.252 5.534-10.176 10.174-1.92 4.636-1.92 9.747 0 14.387zM372.756 735.041c-3.968 9.579 0.597 20.597 10.174 24.563 9.581 3.966 20.597-0.599 24.563-10.174 1.92-4.64 1.92-9.749 0-14.387-1.922-4.64-5.536-8.252-10.176-10.174-9.577-3.97-20.595 0.597-24.561 10.171zM224.957 552.508c-4.638-1.922-9.745-1.922-14.387 0-4.64 1.922-8.252 5.534-10.176 10.174-1.92 4.64-1.92 9.749 0 14.389h0.002c1.92 4.638 5.534 8.252 10.174 10.174 2.32 0.962 4.755 1.442 7.195 1.442 2.437 0 4.872-0.48 7.192-1.442 4.64-1.922 8.252-5.534 10.176-10.174 1.92-4.64 1.92-9.749-0.002-14.389-1.922-4.638-5.534-8.25-10.174-10.174zM235.131 318.93c-1.922-4.64-5.536-8.252-10.176-10.174-4.642-1.922-9.749-1.918-14.387 0-4.64 1.922-8.252 5.534-10.176 10.174-1.92 4.64-1.92 9.749 0 14.389 1.922 4.64 5.536 8.252 10.176 10.174 2.32 0.962 4.755 1.442 7.192 1.442 2.439 0 4.875-0.48 7.195-1.442 4.64-1.922 8.252-5.534 10.174-10.174h0.002c1.922-4.64 1.922-9.751 0-14.389zM407.492 146.568c-3.966-9.577-14.975-14.141-24.563-10.174-9.577 3.966-14.141 14.986-10.176 24.561 2.995 7.234 10.012 11.607 17.395 11.607 2.393 0 4.826-0.46 7.168-1.431 4.64-1.922 8.252-5.534 10.176-10.174 1.92-4.638 1.92-9.749 0-14.389zM651.246 160.957c1.92-4.64 1.92-9.749 0-14.389-1.922-4.64-5.536-8.252-10.176-10.174-9.581-3.966-20.597 0.599-24.563 10.174-1.92 4.64-1.92 9.749 0 14.389 1.922 4.64 5.536 8.252 10.176 10.174 9.579 3.961 20.595-0.597 24.563-10.174zM806.264 344.923c2.391 0 4.824-0.46 7.168-1.429 9.574-3.968 14.139-14.986 10.171-24.565-1.92-4.638-5.534-8.25-10.171-10.174-4.644-1.922-9.753-1.92-14.389 0-4.64 1.922-8.252 5.534-10.176 10.174-1.92 4.64-1.92 9.749 0 14.389 2.997 7.232 10.014 11.605 17.397 11.605zM512 305.348c-78.658 0-142.652 63.994-142.652 142.652s63.994 142.652 142.652 142.652 142.652-63.994 142.652-142.652-63.994-142.652-142.652-142.652zM823.995 786.581c3.663 3.665 8.477 5.496 13.292 5.496s9.63-1.833 13.292-5.496c0 0 0.002 0 0.002 0 3.55-3.55 5.505-8.272 5.505-13.292 0-5.023-1.955-9.742-5.507-13.294-3.55-3.55-8.269-5.507-13.292-5.507s-9.74 1.955-13.292 5.507c-7.329 7.329-7.329 19.257 0 26.586zM512 926.825c10.366 0 18.799-8.433 18.799-18.799s-8.433-18.799-18.799-18.799-18.799 8.433-18.799 18.799 8.433 18.799 18.799 18.799zM173.419 759.995c-3.55 3.55-5.505 8.272-5.505 13.292s1.955 9.74 5.505 13.292c0 0 0.002 0 0.002 0 3.663 3.665 8.477 5.496 13.292 5.496s9.63-1.833 13.294-5.498c3.55-3.55 5.505-8.272 5.505-13.292 0-5.023-1.955-9.742-5.507-13.294-3.55-3.55-8.269-5.507-13.292-5.507s-9.74 1.96-13.294 5.511zM51.974 429.201c-10.366 0-18.799 8.433-18.799 18.799s8.433 18.799 18.799 18.799 18.799-8.433 18.799-18.799-8.433-18.799-18.799-18.799zM200.005 109.419c-7.327-7.327-19.255-7.329-26.586 0-3.55 3.55-5.505 8.272-5.505 13.292s1.955 9.742 5.507 13.292c3.55 3.55 8.269 5.507 13.292 5.507s9.74-1.955 13.292-5.507c0.002-0.002 0.004-0.004 0.007-0.007 3.548-3.55 5.5-8.269 5.5-13.288s-1.955-9.738-5.507-13.29zM512-30.825c-10.366 0-18.799 8.433-18.799 18.799s8.433 18.799 18.799 18.799 18.799-8.433 18.799-18.799-8.433-18.799-18.799-18.799zM850.581 136.005c3.55-3.55 5.505-8.272 5.505-13.292 0-5.023-1.955-9.742-5.507-13.294-7.329-7.329-19.257-7.327-26.584 0-7.329 7.329-7.329 19.257 0 26.586 3.55 3.55 8.269 5.507 13.292 5.507s9.74-1.955 13.294-5.507zM972.026 429.201c-10.366 0-18.799 8.433-18.799 18.799s8.433 18.799 18.799 18.799 18.799-8.433 18.799-18.799-8.433-18.799-18.799-18.799zM510.894 501.080c0 28.659-23.315 51.974-51.974 51.974s-51.974-23.315-51.974-51.974 23.315-51.974 51.974-51.974 51.974 23.315 51.974 51.974zM458.92 482.281c-10.366 0-18.799 8.433-18.799 18.799s8.433 18.799 18.799 18.799 18.799-8.433 18.799-18.799-8.433-18.799-18.799-18.799zM529.693 429.201c-28.659 0-51.974-23.315-51.974-51.974s23.315-51.974 51.974-51.974 51.974 23.315 51.974 51.974-23.315 51.974-51.974 51.974zM529.693 358.428c-10.366 0-18.799 8.433-18.799 18.799s8.433 18.799 18.799 18.799 18.799-8.433 18.799-18.799-8.433-18.799-18.799-18.799zM547.431 502.186c9.163 0 16.587 7.427 16.587 16.587s-7.425 16.587-16.587 16.587h-0.022c-9.161 0-16.576-7.427-16.576-16.587s7.438-16.587 16.599-16.587zM600.511 464.587h-0.022c-9.161 0-16.576-7.427-16.576-16.587s7.438-16.587 16.599-16.587c9.163 0 16.587 7.427 16.587 16.587s-7.427 16.587-16.587 16.587z" />
<glyph unicode="&#xe913;" glyph-name="envelope" d="M0 832v-136.534l512-418.132 512 418.132v136.534h-1024zM938.666 738.132l-426.666-349.866-426.666 349.866v8.534h853.334v-8.534h-0.002zM938.666 149.334h-853.332v341.332h-85.334v-426.666h1024v426.666h-85.334z" />
<glyph unicode="&#xe914;" glyph-name="map" d="M512 777.142c-121.199 0-219.427-98.232-219.427-219.427s98.232-219.427 219.427-219.427 219.427 98.232 219.427 219.427-98.229 219.427-219.427 219.427zM512 411.427c-80.823 0-146.285 65.462-146.285 146.285s65.462 146.285 146.285 146.285 146.285-65.462 146.285-146.285-65.462-146.285-146.285-146.285zM512 960c-222.208 0-402.285-189.88-402.285-424.155 0-117.102 45.056-223.159 117.834-299.96l284.454-299.885 284.454 299.885c72.778 76.8 117.834 182.858 117.834 299.96-0.006 234.275-180.084 424.155-402.291 424.155zM731.427 301.715l-219.427-256-219.427 256c-147.53 145.407-145.336 329.362 0 475.427 136.046 136.63 301.35 135.314 438.858 0 146.136-143.798 148.404-328.849-0.003-475.427z" />
<glyph unicode="&#xe915;" glyph-name="users" d="M895.653 411.174c-10.127 2.485-16.012 9.318-17.813 20.775 35.999 20.982 56.318 64.7 56.318 122.604 0 75.155-53.118 136.299-118.408 136.299-65.287 0-118.404-61.143-118.404-136.299 0-57.906 20.319-101.625 56.314-122.606-1.797-11.454-7.684-18.288-17.809-20.775-53.365-13.088-85.408-29.679-104.709-54.598-23.119 5.22-38.785 15.849-41.062 44.228 50.721 26.735 79.475 86.685 79.475 167.19 0 100.699-70.679 182.623-157.556 182.623s-157.556-81.924-157.556-182.623c0-80.503 28.756-140.453 79.475-167.19-2.28-28.379-21.030-40.924-41.067-44.228-19.293 24.919-51.319 41.505-104.703 54.598-10.127 2.487-16.014 9.318-17.811 20.775 35.997 20.979 56.314 64.698 56.314 122.606 0 75.155-53.116 136.299-118.404 136.299s-118.408-61.143-118.408-136.299c0-57.904 20.319-101.623 56.316-122.604-1.799-11.456-7.686-18.29-17.809-20.775-95.959-23.533-128.345-59.682-128.345-143.256 0-11.54 9.356-20.898 20.898-20.898h218.511c-9.178-26.482-10.873-54.784-10.873-80.739 0-11.54 9.358-20.898 20.898-20.898h525.134c11.54 0 20.898 9.358 20.898 20.898 0 25.955-1.697 54.257-10.873 80.739h218.509c11.54 0 20.898 9.358 20.898 20.898 0 83.575-32.388 119.722-128.347 143.256zM42.477 288.816c3.254 41.1 20.34 63.254 95.826 81.765 25.675 6.301 52.32 29.37 50.109 75.224-0.397 8.269-5.64 15.523-13.366 18.497-39.179 15.086-43.411 68.14-43.411 90.252 0 52.109 34.367 94.503 76.612 94.503 42.243 0 76.608-42.394 76.608-94.503 0-22.112-4.228-75.172-43.405-90.252-7.724-2.972-12.965-10.225-13.366-18.493-2.219-45.856 24.428-68.928 50.109-75.228 32.227-7.904 54.646-16.835 69.394-27.886-38.833-14.173-65.682-31.234-84.19-53.026-0.238-0.282-0.464-0.568-0.7-0.853h-220.219zM270.838 187.179c1.486 27.926 6.531 49.894 18.633 67.904 0.468 0.602 0.903 1.231 1.302 1.881 19.314 27.18 55.503 45.232 121.204 61.34 15.887 3.893 67.436 22.388 63.845 96.875-0.397 8.269-5.64 15.523-13.366 18.499-42.078 16.196-66.213 65.154-66.213 134.315 0 77.651 51.929 140.827 115.76 140.827s115.76-63.175 115.76-140.827c0-69.166-24.133-118.122-66.213-134.315-7.726-2.974-12.969-10.227-13.368-18.499-3.59-74.487 47.959-92.981 63.845-96.875 110.080-26.988 137.32-59.421 141.139-131.124h-482.327zM761.302 288.816c-0.236 0.284-0.462 0.571-0.7 0.853-18.509 21.792-45.355 38.851-84.183 53.024 14.754 11.053 37.177 19.987 69.39 27.888 25.677 6.301 52.324 29.37 50.107 75.228-0.399 8.267-5.64 15.519-13.364 18.493-39.177 15.082-43.407 68.138-43.407 90.252 0 52.109 34.365 94.503 76.608 94.503 42.245 0 76.612-42.394 76.612-94.503 0-22.11-4.23-75.166-43.411-90.252-7.724-2.974-12.967-10.227-13.366-18.497-2.213-45.856 24.434-68.926 50.111-75.224 75.486-18.511 92.574-40.665 95.826-81.765h-220.221z" />
<glyph unicode="&#xe916;" glyph-name="telephone" d="M511.984 960c-282.308 0-511.984-229.677-511.984-512.016 0-282.308 229.645-511.984 511.984-511.984 17.46 0 31.566 14.137 31.566 31.535 0 17.429-14.106 31.566-31.566 31.566-247.513 0-448.821 201.371-448.821 448.852 0 247.513 201.308 448.884 448.821 448.884s448.79-201.371 448.79-448.884c0-103.412-55.045-205.979-133.819-249.362-28.619-15.736-59.653-23.541-92.755-23.855 19.874 11.849 37.083 27.804 49.872 47.992 2.508 3.793 5.83 7.084 7.46 11.253 10.282 24.732 11.191 52.788 17.397 78.868 7.617 33.415-146.013 98.522-159.366 56.894-4.827-15.454-12.225-64.198-21.911-77.050-8.62-11.442-29.873-6.050-43.164 5.266-35.014 29.842-74.103 73.727-108.397 108.365l0.063 0.031c-0.878 0.909-1.943 1.943-2.884 2.853-0.972 0.94-1.943 1.943-2.915 2.884v0c-34.669 34.262-78.555 73.288-108.365 108.397-11.285 13.291-16.739 34.481-5.266 43.133 12.852 9.717 61.627 17.021 77.050 21.88 41.566 13.322-23.51 167.046-56.925 159.366-26.080-6.113-54.136-7.053-78.868-17.303-4.2-1.755-7.46-5.015-11.253-7.523-87.739-55.64-99.055-190.681-13.416-291.273 32.632-38.494 66.674-75.733 101.72-112.096l-0.188-0.125c0.972-0.972 1.975-1.881 2.978-2.821 0.94-0.972 1.849-1.943 2.759-2.978l0.188 0.188c36.362-35.046 79.464-86.642 149.492-133.38 147.423-98.46 260.553-70.969 327.196-34.419 115.042 63.352 166.513 198.675 166.513 304.658 0.031 282.527-229.677 512.204-511.984 512.204z" />
<glyph unicode="&#xe917;" glyph-name="view" d="M1006.407 470.243c-2.067 2.618-51.683 64.859-136.744 127.351-113.666 83.51-237.345 127.652-357.666 127.652-120.317 0-243.996-44.141-357.666-127.652-85.059-62.49-134.675-124.733-136.744-127.351l-17.586-22.242 17.588-22.244c2.069-2.618 51.685-64.862 136.744-127.354 113.67-83.508 237.35-127.649 357.666-127.649 120.319 0 243.998 44.141 357.664 127.649 85.062 62.492 134.677 124.735 136.744 127.354l17.593 22.244-17.593 22.242zM511.997 253.775c-107.095 0-194.226 87.128-194.226 194.226 0 16.779 2.139 33.067 6.158 48.609l-44.343 7.463c-4.344-17.99-6.649-36.766-6.649-56.072 0-69.179 29.55-131.579 76.675-175.272-60.663 22.408-112.247 53.852-151.178 82.291-48.233 35.228-84.38 70.858-104.988 92.981 20.617 22.13 56.76 57.755 104.988 92.981 38.932 28.438 90.518 59.883 151.178 82.293l29.747-33.531c34.742 32.532 81.401 52.483 132.637 52.483 107.095 0 194.224-87.128 194.224-194.226s-87.128-194.226-194.224-194.226zM825.56 355.020c-38.936-28.438-90.518-59.883-151.178-82.291 47.123 43.691 76.673 106.091 76.673 175.274s-29.55 131.581-76.673 175.274c60.663-22.41 112.242-53.855 151.178-82.293 48.233-35.228 84.38-70.858 104.988-92.979-20.617-22.135-56.76-57.762-104.988-92.986zM388.4 485.756c-3.645-11.946-5.62-24.618-5.62-37.757 0-71.362 57.852-129.216 129.216-129.216 71.362 0 129.214 57.852 129.214 129.216s-57.852 129.216-129.214 129.216c-34.76 0-66.289-13.751-89.516-36.078l63.736-71.842-97.817 16.461z" />
<glyph unicode="&#xe918;" glyph-name="bag" d="M889.532-18.547l-49.784 656.452c-1.982 25-24.122 45.453-49.203 45.453h-49.53c-2.775 0-2.539 1.498-2.415 2.243 2.636 16.050 4.697 30.332 5.566 40.278 4.994 56.785-14.464 112.301-54.79 156.329-45.287 49.436-109.931 77.792-177.379 77.792-67.441 0-132.092-28.356-177.373-77.792-40.329-44.028-59.787-99.547-54.793-156.329 0.832-9.467 2.742-22.875 5.197-37.987 0.242-1.495 1.304-4.534-3.992-4.534h-47.587c-25.072 0-47.215-20.454-49.194-45.453l-49.784-656.452c-1.982-25 16.916-45.453 41.988-45.453h671.080c25.078 0 43.976 20.454 41.994 45.453zM322.409 729.62c-3.932 44.703 11.601 88.633 43.731 123.717 36.661 40.026 91.185 63.918 145.854 63.918 54.666 0 109.196-23.895 145.851-63.918 32.13-35.084 47.666-79.015 43.731-123.717-0.902-10.221-3.241-25.895-6.223-43.468-0.157-0.926-0.254-2.794-4.289-2.794h-357.442c-3.974 0-4.948 2.551-5.16 3.813-2.893 17.158-5.172 32.421-6.053 42.448zM287.716 561.385c0 11.704 4.594 22.309 12.043 30.19 0.82 0.869 2.89 2.754 3.299-1.165 3.484-17.557 5.315-26.253 5.632-27.796 2.397-11.562 13.716-18.98 25.272-16.586 11.555 2.4 18.98 13.707 16.583 25.272-0.079 0.39-1.958 9.279-5.69 28.108-0.89 3.175 1.471 3.529 2.6 3.102 16.567-6.332 28.338-22.339 28.338-41.125 0-24.319-19.718-44.040-44.040-44.040-24.319 0-44.037 19.721-44.037 44.040zM698.731 247.165c-29.906-45.471-158.635-153.611-186.537-153.611-27.315 0-157.216 108.53-186.921 153.611-14.879 22.569-25.429 47.475-23.677 80.21 3.099 57.947 50.483 105.806 108.509 105.806 59.66 0 94.399-63.649 101.899-63.649 8.565 0 44.787 63.649 101.887 63.649 58.032 0 105.41-47.856 108.512-105.806 1.752-32.738-8.768-57.547-23.671-80.21zM692.242 517.345c-24.322 0-44.037 19.721-44.037 44.040 0 19.14 12.221 35.396 29.276 41.467 0.823 0.297 2.927 0.975 1.771-2.89-3.729-18.828-5.72-28.274-5.802-28.665-2.394-11.562 5.030-22.872 16.586-25.272 1.459-0.303 2.927-0.448 4.358-0.448 9.918 0 18.813 6.94 20.905 17.037 0.321 1.544 2.228 10.617 5.717 28.174 0.89 3.069 2.585 1.471 3.49 0.502 7.294-7.857 11.776-18.344 11.776-29.906 0-24.319-19.718-44.040-44.040-44.040z" />
<glyph unicode="&#xe919;" glyph-name="circle2" d="M512 960c-282.766 0-512-229.23-512-512s229.234-512 512-512 512 229.23 512 512-229.234 512-512 512zM688.96 420.86l-256-160c-5.18-3.234-11.070-4.86-16.96-4.86-5.336 0-10.68 1.328-15.516 4.016-10.172 5.64-16.484 16.344-16.484 27.984v320c0 11.64 6.312 22.344 16.484 27.984 10.172 5.672 22.61 5.328 32.476-0.844l256-160c9.352-5.86 15.040-16.11 15.040-27.14s-5.688-21.282-15.040-27.14z" />
<glyph unicode="&#xe91a;" glyph-name="cut" d="M724.409 338.817c-33.075 0-64.23-8.151-91.797-22.372l-93.643 150.673 293.823 472.753-32.369 20.13-283.921-456.757-283.908 456.757-32.385-20.13 293.839-472.776-95.883-154.263c-29.185 16.455-62.781 25.95-98.604 25.95-111.051 0-201.4-90.329-201.4-201.391s90.346-201.391 201.4-201.391c111.064 0 201.426 90.329 201.426 201.391 0 61.531-27.825 116.663-71.473 153.628l86.986 139.967 83.982-135.162c-47.053-36.893-77.485-94.125-77.485-158.433 0-111.061 90.346-201.391 201.407-201.391 111.045 0 201.426 90.329 201.426 201.391s-90.342 201.426-201.423 201.426zM462.871 137.391c0-90.049-73.269-163.27-163.309-163.27-90.030 0-163.28 73.26-163.28 163.27s73.269 163.27 163.28 163.27c90.040 0.039 163.309-73.221 163.309-163.27zM724.409-25.879c-90.010 0-163.27 73.26-163.27 163.27s73.26 163.27 163.27 163.27c90.069 0 163.309-73.26 163.309-163.27s-73.26-163.27-163.309-163.27z" />
<glyph unicode="&#xe91b;" glyph-name="hand" d="M904.85 614.865c-30.656 32.76-72.464 48.949-125.431 48.569-29.341 22.859-63.248 34.283-101.712 34.283-8.378 0-16.568-0.568-24.574-1.711-21.714 12.569-44.384 19.62-67.993 21.139v96.572c0 39.999-14.46 74.38-43.425 103.143-28.953 28.757-63.432 43.141-103.429 43.141-39.242 0-73.335-14.476-102.29-43.427-28.951-28.959-43.427-63.244-43.427-102.862v-213.714c-22.855 8.376-47.236 12.567-73.143 12.567-46.474 0-82.476-15.527-107.996-46.568-25.524-31.050-38.28-70.383-38.28-117.999 0-14.472 3.328-27.718 9.999-39.711s16.096-22.48 28.288-31.433c12.187-8.944 24.187-16.656 36-23.137 11.811-6.487 25.522-13.528 41.144-21.143 15.617-7.618 27.422-13.91 35.426-18.856 20.949-13.322 45.521-32.383 73.711-57.131 1.145-0.773 4.383-3.444 9.715-8.006 5.338-4.575 9.435-8.192 12.287-10.864 2.856-2.67 6.953-6.575 12.281-11.712 5.332-5.136 9.617-9.719 12.855-13.714 3.232-3.993 6.665-8.294 10.281-12.863 3.621-4.561 6.285-9.041 8.004-13.424s2.576-8.48 2.576-12.289v-164.575c0-20.193 7.141-37.423 21.425-51.711 14.288-14.288 31.527-21.431 51.719-21.431h365.696c20.191 0 37.437 7.143 51.725 21.431 14.274 14.28 21.431 31.519 21.431 51.711v164.575c0 22.478 11.24 64.959 33.72 127.424 26.287 72.008 39.416 133.348 39.416 183.999-0.012 53.723-15.319 96.962-46.003 129.728zM793.72 20.007c-7.247-7.233-15.821-10.864-25.727-10.864s-18.467 3.637-25.713 10.864c-7.233 7.231-10.85 15.807-10.85 25.713s3.617 18.477 10.85 25.713c7.245 7.239 15.807 10.864 25.713 10.864s18.477-3.625 25.727-10.864c7.231-7.233 10.85-15.807 10.85-25.713s-3.623-18.481-10.85-25.713zM859.431 379.715c-12.193-37.527-24.384-74.382-36.574-110.582-12.191-36.184-18.287-67.999-18.287-95.417v-18.281h-365.704v18.281c0 27.042-10.856 53.705-32.568 79.994-9.527 11.424-29.719 30.676-60.572 57.718-30.852 27.426-58.472 48.767-82.852 64.002-8.004 4.96-20.381 11.999-37.143 21.149-52.954 25.138-79.431 42.273-79.431 51.423 0 27.046 5.808 49.047 17.431 66 11.612 16.952 30.186 25.424 55.708 25.424 16.384 0 32.479-2.856 48.287-8.572 15.807-5.708 28.765-11.993 38.856-18.852s20.571-13.143 31.429-18.86c10.866-5.714 20.103-8.572 27.718-8.572v329.14c0 19.042 7.337 35.992 22.004 50.857 14.665 14.853 31.709 22.28 51.143 22.28 19.81 0 36.951-7.235 51.431-21.712 14.476-14.474 21.712-31.619 21.712-51.431v-189.139c6.483 5.72 15.523 10.48 27.14 14.288 11.618 3.809 22.192 5.716 31.713 5.716 26.289 0 48.945-10.091 67.987-30.284 12.193 6.859 25.342 10.287 39.439 10.287 14.094 0 28.094-3.336 41.998-9.999 13.896-6.671 23.895-15.719 29.992-27.144 11.424 1.901 22.088 2.856 31.993 2.856 63.608 0 95.431-35.996 95.431-107.994 0.016-30.858-6.086-65.057-18.279-102.578z" />
<glyph unicode="&#xe91c;" glyph-name="blood-dropper" d="M385.151 677.904l-10.064-87.539 33.342-33.307 18.928 138.995c-0.601 5.536 1.787 11.357 8.561 16.469 59.239 44.699 107.722 40.808 175.823 10.33 52.535-23.508 94.475-14.717 147.079 2.087 40.506 12.948 79.192 1.008 114.479-14.504 15.883-6.987 17-19.67 10.223-29.203l3.945-3.945-233.256-233.258-6.404 6.792-117.893-15.141 38.739-38.702 88.778 8.915 281.972 281.952-272.173 272.156-282.077-282.096zM524.873 397.668l-147.841 147.821-19.387-19.369-17.794 17.796-112.923-112.941 183.411-183.43 112.941 112.941-17.794 17.796 9.657 9.64zM148.639 195.737l26.461-26.481 202.284 80.907-147.839 147.841zM159.411-64c168.324 0 0 229.844 0 229.844s-168.322-229.844 0-229.844zM198.395 4.135c-4.829-7.784-14.434-12.169-31.875-10.171-42.381 4.864-40.223 36.049-28.672 64.651 2.742 6.792 5.943 13.372 9.285 19.493 4.687 8.543 9.409 16.025 13.072 21.404 0.583 0.849 1.079 1.556 1.593 2.3 2.794 4.015 4.722 6.563 4.722 6.563s33.324-51.138 35.642-85.187c0.516-7.451-0.601-13.977-3.767-19.054z" />
<glyph unicode="&#xe91d;" glyph-name="medicine2" d="M833.315 366.42h-322.118l-47.151-47.151h90.199v-287.081h-219.709c-66.897 0-123.082 46.055-138.932 108.083-1.704-0.037-3.409-0.122-5.125-0.122-14.755 0-29.498 1.437-44.034 4.273 14.986-90.296 93.596-159.385 188.080-159.385h498.779c105.149 0 190.697 85.536 190.697 190.685s-85.536 190.697-190.685 190.697zM789.865 34.587h-157.888c-11.164 0-20.209 9.045-20.209 20.209s9.045 20.209 20.209 20.209h157.888c11.164 0 20.209-9.045 20.209-20.209s-9.045-20.209-20.209-20.209zM870.422 34.587h-7.84c-11.164 0-20.209 9.045-20.209 20.209s9.045 20.209 20.209 20.209h7.84c11.164 0 20.209-9.045 20.209-20.209s-9.045-20.209-20.209-20.209zM678.008 855.302c-35.877 35.89-83.771 55.648-134.842 55.648s-98.952-19.759-134.842-55.648l-352.688-352.688c-35.877-35.877-55.636-83.759-55.636-134.83s19.759-98.952 55.648-134.842c37.18-37.18 85.999-55.758 134.842-55.758 48.831 0 97.674 18.59 134.842 55.758l352.688 352.688c35.89 35.89 55.648 83.771 55.648 134.842s-19.771 98.952-55.661 134.83zM291.987 266.287c-55.977-55.965-147.041-55.965-202.993 0-26.978 26.978-41.843 63.026-41.843 101.497s14.865 74.519 41.843 101.497l155.356 155.356 202.993-202.993-155.356-155.356zM612.255 589.952l-111.638-111.638c-3.944-3.944-9.119-5.917-14.293-5.917s-10.348 1.972-14.293 5.917c-7.889 7.889-7.889 20.684 0 28.573l111.65 111.638c7.889 7.889 20.684 7.889 28.573 0s7.889-20.684 0-28.573zM669.218 646.915l-5.539-5.539c-3.944-3.944-9.119-5.917-14.293-5.917s-10.336 1.972-14.293 5.917c-7.889 7.889-7.889 20.684 0 28.573l5.539 5.539c7.889 7.889 20.684 7.889 28.573 0 7.901-7.889 7.901-20.684 0.012-28.573z" />
<glyph unicode="&#xe91e;" glyph-name="dental" d="M974.109 606.432c-33.919 37.984-80.62 58.903-131.48 58.903-27.058 0-55.060-10.926-76.318-21.067-1.158-0.551-3.618-1.008-3.686 1.332-4.541 50.708-24.643 95.579-57.557 132.434-39.961 44.739-94.951 69.372-154.859 69.372-46.957 0-97.022-27.618-133.609-47.805-11.107-6.126-29.332-17.342-34.651-17.342-5.29 0-23.36 11.148-34.499 17.304-36.493 20.192-86.468 47.844-133.756 47.844-59.903 0-114.899-24.634-154.859-69.372-37.943-42.476-58.835-98.373-58.835-157.38 0-83.44 29.902-201.956 79.984-317.036 22.29-51.223 46.041-95.516 68.679-128.096 27.56-39.659 51.592-58.937 73.464-58.937 10.116 0 28.614 4.186 38.767 32.273 9.111 25.209 17.284 54.041 25.994 84.774 21.369 75.438 50.638 178.766 93.61 178.766 0 0 4.382-0.14 4.676-3.797 9.394-62.207 30.811-131.313 61.549-201.947 18.73-43.035 38.692-80.262 57.733-107.663 23.575-33.914 44.359-50.401 63.538-50.401 9.123 0 25.784 3.724 34.796 28.665 7.671 21.216 14.529 45.422 21.816 71.129 17.669 62.385 41.872 147.827 75.963 147.827h2.431c14.653 0 28.249-13.568 41.57-41.481 14.029-29.373 24.791-68.792 35.195-106.921 6.963-25.494 13.539-49.577 20.987-70.472 8.845-24.822 25.356-28.544 34.414-28.546 19.112 0 39.886 16.738 63.497 51.162 18.988 27.674 38.992 65.261 57.844 108.697 42.257 97.401 67.494 196.236 67.494 264.381-0.005 50.009-17.719 97.387-49.893 133.401zM379.562 473.029c0-6.375 0.215-13.108 0.638-20.098 0.039-0.616 0.452-2.707-2.569-2.504-33.858-0.085-59.019-23.213-82.439-72.028-18.314-38.172-32.14-87-45.512-134.218l-0.094-0.336c-8.449-29.803-16.427-57.951-25.064-81.823-1.143-3.168-1.962-6.131-3.243-6.542-3.427-1.1-16.586 7.199-40.852 42.114-20.914 30.1-43.987 73.237-64.979 121.467-47.358 108.811-76.775 224.379-76.775 301.601 0 92.45 65.469 188.075 175.020 188.075 28.401 0 65.875-13.038 100.244-34.876 4.986-3.166 12.139-8.666 19.061-13.983 2.794-2.153 5.546-4.268 8.113-6.201 8.294-6.204 19.489-14.322 32.636-22.057 6.909-4.082 13.203-7.705 20.235-10.696 28.515-12.098 58.743-18.239 89.844-18.239 31.763 0 78.498 8.166 77.727 14.51-0.769 6.341-57.144-2.733-115.686 16.243-15.208 4.93-34.811 10.464-34.801 16.671 0.002 1.711 5.508 4.732 9.394 7.052 4.15 2.477 8.855 5.29 14.846 8.596 32.877 18.14 77.906 42.982 114.908 42.982 107.593 0 172.656-92.227 174.957-183.099 0.029-1.010 0.174-2.864-1.866-4.111-6.984-3.833-17.272-10.643-21.516-10.643-4.817 0-20.052 9.88-27.693 14.104-30.775 17.031-72.927 40.352-113.144 40.352-50.865 0-97.563-20.919-131.487-58.903-32.186-36.019-49.901-83.397-49.901-133.408zM922.227 223.518c-17.654-40.693-36.964-77.072-54.367-102.433-15.6-22.741-25.53-36.534-29.844-33.774-1.216 0.778-3.055 5.372-3.497 6.622-6.963 19.537-11.936 38.9-18.713 63.712-10.834 39.712-22.048 80.772-37.517 113.18-20.165 42.218-44.789 62.741-75.286 62.741h-2.431c-29.462 0-53.56-20.363-73.66-62.255-15.407-32.116-27.021-73.101-38.247-112.75-7.091-25.003-13.778-48.617-21.004-68.609-0.5-1.392-1.237-2.977-2.042-3.333-3.507-1.525-13.541 9.309-30.48 33.687-17.408 25.040-36.638 60.998-54.154 101.244-39.514 90.797-64.058 187.154-64.058 251.475 0 76.168 53.866 154.949 144.013 154.949 23.317 0 54.19-10.771 82.575-28.807 4.048-2.569 9.93-7.093 15.716-11.535 2.366-1.822 4.698-3.611 6.878-5.244 6.963-5.225 16.388-12.059 27.543-18.626 5.88-3.47 11.228-6.547 17.236-9.097 24.177-10.261 49.799-15.467 76.175-15.467 27.009 0 78.93 7.632 78.394 16.262-0.346 5.532-58.347-1.718-109.524 14.38-10.402 3.272-25.209 8.391-25.576 10.373-0.35 1.863 3.072 3.818 4.964 4.949 3.446 2.059 7.349 4.389 12.333 7.137 27.287 15.056 64.657 35.676 94.994 35.676 90.146 0 144.013-78.783 144.013-154.949-0.019-62.347-24.701-157.955-64.435-249.508z" />
<glyph unicode="&#xe91f;" glyph-name="sringe4" d="M856.843 658.090c-6.996 14.987-31.523 14.987-38.421 0-17.129-36.309-167.081-357.087-167.081-450.321 0-102.751 83.525-186.375 186.276-186.375 102.743 0 186.375 83.624 186.375 186.375-0.030 93.233-150.028 414.012-167.15 450.321zM837.503 63.954c-79.188 0-143.739 64.551-143.739 143.822 0 62.348 91 274.83 143.739 390.646 52.86-115.824 143.891-328.299 143.891-390.646 0.008-79.355-64.467-143.822-143.891-143.822zM858.78 136.906c0-11.721-9.525-21.276-21.276-21.276-50.756 0-92.109 41.307-92.109 92.101 0 11.721 9.594 21.284 21.284 21.284 11.812 0 21.276-9.563 21.276-21.284 0-27.346 22.241-49.541 49.549-49.541 11.85-0.008 21.276-9.48 21.276-21.284zM686.662 668.937v26.358h133.256c11.812 0 21.284 9.541 21.284 21.276 0 11.705-9.472 21.292-21.284 21.292h-133.256v26.206c0 38.056-30.923 68.873-68.835 68.873l-414.711 0.030v20.35c0 11.705-9.548 21.284-21.284 21.284-11.774 0-21.284-9.579-21.284-21.284l0.038-115.55-118.019 0.084v62.781c0 11.705-9.525 21.284-21.284 21.284-11.766 0-21.284-9.579-21.284-21.284l0.053-168.092c0-11.705 9.518-21.276 21.284-21.276 11.736 0 21.276 9.571 21.276 21.276v62.788l118.019-0.084 0.046-115.467c0-11.721 9.541-21.276 21.284-21.276 11.736 0 21.276 9.556 21.276 21.276v20.388h414.771c37.805-0.046 68.653 30.84 68.653 68.766zM203.064 790.496l414.718-0.038c14.508 0 26.282-11.743 26.282-26.313l0.076-95.087c0-14.546-11.766-26.282-26.275-26.282h-81.877v62.181c0 11.743-9.579 21.276-21.284 21.276s-21.276-9.533-21.276-21.276v-62.181h-42.651v62.181c0 11.743-9.541 21.276-21.276 21.276-11.743 0-21.284-9.533-21.284-21.276v-62.181h-42.56v62.181c0 11.743-9.541 21.276-21.284 21.276-11.751 0-21.284-9.533-21.284-21.276v-62.181h-119.971l-0.053 147.719z" />
<glyph unicode="&#xe920;" glyph-name="drip" d="M757.412 522.432c-91.032 0-165.093-66.917-165.093-149.165v-139.437c0-1.578 0.162-3.119 0.463-4.614-0.301-1.49-0.463-3.031-0.463-4.614v-139.433c0-56.736-53.302-102.892-118.816-102.892s-118.816 46.157-118.816 102.892v139.433c0 1.138-0.176 2.231-0.338 3.327h86.492c17.798 0 32.283 14.48 32.283 32.283v42.857c0 11.639 9.468 21.102 21.107 21.102 37.151 0 67.379 30.228 67.379 67.379v440.294c-0.005 70.665-57.495 128.155-128.16 128.155h-203.799c-70.67 0-128.16-57.49-128.16-128.155v-440.289c0-37.151 30.228-67.379 67.379-67.379h10.968c11.639 0 21.102-9.464 21.102-21.102v-42.857c0-17.798 14.48-32.283 32.283-32.283h75.524c-0.157-1.097-0.338-2.189-0.338-3.327v-139.433c0-82.253 74.062-149.169 165.093-149.169s165.093 66.917 165.093 149.169v139.433c0 1.578-0.162 3.119-0.463 4.614 0.301 1.49 0.463 3.031 0.463 4.614v139.437c0 56.736 53.302 102.888 118.816 102.888s118.816-46.157 118.816-102.888v-139.437c0-12.777 10.361-23.139 23.139-23.139s23.139 10.361 23.139 23.139v139.437c0.005 82.244-74.057 149.16-165.093 149.16zM176.602 790.705h166.815c12.777 0 23.139-10.361 23.139-23.139s-10.361-23.139-23.139-23.139h-166.815c-12.777 0-23.139 10.361-23.139 23.139s10.357 23.139 23.139 23.139zM176.602 716.921h166.815c12.777 0 23.139-10.361 23.139-23.139s-10.361-23.139-23.139-23.139h-166.815c-12.777 0-23.139 10.361-23.139 23.139s10.357 23.139 23.139 23.139zM176.602 643.132h166.815c12.777 0 23.139-10.361 23.139-23.139s-10.361-23.139-23.139-23.139h-166.815c-12.777 0-23.139 10.361-23.139 23.139s10.357 23.139 23.139 23.139zM247.217 274.211v28.863c0 37.151-30.228 67.379-67.379 67.379h-10.968c-11.639 0-21.102 9.464-21.102 21.102v154.658h367.56v-154.658c0-11.639-9.464-21.102-21.102-21.102-37.151 0-67.379-30.228-67.379-67.379v-28.863h-179.629z" />
<glyph unicode="&#xe921;" glyph-name="dropper" d="M833.724 214.706c6.622 6.558 6.599 17.293 0 23.92l-111.462 111.41 1.079 6.501c2.394 13.515-1.269 26.233-10.1 35.006l-178.521 178.555c-28.246-28.223 18.083-81.243-20.817-92.196l142.851-142.822c8.762-8.744 21.515-12.459 35.018-10.111l6.483 1.148 111.439-111.456c6.627-6.622 17.402-6.622 24.030 0.046zM851.547 196.871c16.445 16.41 16.445 43.174 0 59.642l-102.446 102.394c1.54 19.161-4.839 37.371-18.037 50.574l-238.191 238.168c33.091 38.854 52.068 69.909 44.979 77.015l-97.376 97.399c-5.18 5.209-23.349-3.692-47.84-21.717l-129.637 129.66c-39.978 39.99-104.742 39.99-144.674 0-39.903-39.863-39.903-104.632 0-144.622l129.683-129.625c-18.037-24.52-26.925-42.643-21.717-47.846l97.399-97.37c7.089-7.199 38.179 11.836 77.026 44.91l238.185-238.203c13.163-13.099 31.257-19.502 50.499-17.921l102.498-102.515c16.404-16.416 43.197-16.416 59.647 0.058zM693.924 312.613c-16.289-2.878-33.553 1.044-46.11 13.653l-237.562 237.482c12.349 10.959 25.212 22.945 38.363 36.050 13.145 13.099 25.074 25.979 35.964 38.288l237.591-237.539c12.655-12.626 16.537-29.827 13.63-46.144l106.813-106.87c11.519-11.455 11.553-30.207 0.029-41.789-11.553-11.49-30.328-11.49-41.853 0l-106.864 106.87zM863.914 184.528c0 0-71.743-137.274-71.743-176.842 0-39.557 32.18-71.685 71.743-71.685 39.557 0 71.691 32.122 71.691 71.685 0 39.569-71.691 176.842-71.691 176.842z" />
<glyph unicode="&#xe922;" glyph-name="blood-group" d="M548.508 426.363h14.087l8.571 26.607h49.742l8.889-26.607h29.047l-46.359 131.1h-31.706l-46.508-131.1h14.236zM596.206 528.307l17.43-52.658h-34.841l17.411 52.658zM736.006 426.363c15.932 0 27.986 3.472 36.369 10.417 8.115 7.014 12.361 17.272 12.361 30.615 0 10.962-4.127 19.543-12.609 25.238-2.272 1.577-5.188 3.095-8.135 4.186 1.617 0.863 3.046 1.667 4.345 2.599 8.036 5.754 12.053 13.899 12.053 24.801 0 10.486-3.522 18.522-10.744 24.385-7.044 5.804-16.944 8.74-29.593 8.74h-63.452v-130.991l59.404 0.010zM702.713 534.934h30.287c7.173 0 12.649-1.19 16.18-3.433 3.522-2.222 5.317-5.635 5.317-10.030 0-5.159-1.677-9.008-5.099-11.617-3.433-2.55-8.423-3.8-15.238-3.8h-31.27v28.879h-0.179zM702.713 484.121h32.787c7.272 0 12.748-1.359 16.498-4.018 3.522-2.708 5.506-6.835 5.506-12.272 0-6.3-1.756-10.962-5.367-14.008-3.552-3.254-8.859-4.663-16.071-4.663h-33.343v34.96zM503.915 74.977c0-15.307-12.401-27.797-27.797-27.797-130.307 0-236.238 105.912-236.238 236.228 0 15.377 12.579 27.817 27.787 27.817 15.397 0 27.797-12.44 27.797-27.817 0-99.592 81.101-180.653 180.653-180.653 15.397 0.010 27.797-12.411 27.797-27.778zM895.36 492.484c0 122.628-99.771 222.349-222.34 222.349-9.345 0-18.115-1.518-27.043-2.708-146.675 254.214-158.907 251.337-177.052 246.724-6.419-1.736-12.153-5.804-15.863-11.29-13.224-19.653-324.422-481.187-324.422-664.142 0-191.506 155.931-347.418 347.428-347.418 191.526 0 347.438 155.911 347.438 347.418 0 12.768-1.865 27.371-4.692 42.748 46.488 40.654 76.547 99.771 76.547 166.318zM839.775 492.484c0-91.864-74.91-166.775-166.765-166.775-91.964 0-166.765 74.91-166.765 166.775 0 91.964 74.801 166.765 166.765 166.765 91.954 0 166.765-74.751 166.765-166.765zM767.96 283.418c0-160.941-130.882-291.823-291.843-291.823-160.931 0-291.833 130.882-291.833 291.823 0 126.934 193.024 447.487 291.833 598.239 25.079-38.274 67.936-105.376 113.561-183.382-81.319-33.055-138.957-112.648-138.957-205.792 0-122.628 99.682-222.359 222.34-222.359 33.631 0 65.416 8.145 93.977 21.716 0.109-2.54 0.923-6.022 0.923-8.423z" />
<glyph unicode="&#xe923;" glyph-name="drip2" d="M707.074 776.239c0 67.643-55.031 127.535-122.673 127.535h-80.813c-13.481 32.947-45.866 56.227-83.609 56.227-37.74 0-70.128-23.28-83.606-56.227h-80.81c-67.646 0-122.677-55.034-122.677-122.677v-553.743c0-67.643 55.031-122.673 122.677-122.673h46.004v-22.152c0-18.818 15.257-34.078 34.075-34.078h50.262v-78.372c0-18.818 15.26-34.078 34.078-34.078s34.078 15.26 34.078 34.078v78.372h50.262c18.818 0 34.078 15.26 34.078 34.078v22.152h46.004c67.643 0 122.673 55.031 122.673 122.673v215.285c47.687 29.961 184.041 124.307 184.041 223.256 0 69.16-55.996 125.424-124.825 125.424-21.428 0-41.588-5.485-59.22-15.081zM638.921 778.88c-16.381 7.954-34.719 12.44-54.096 12.44-68.832 0-124.831-56.265-124.831-125.424 0-95.604 127.31-186.909 178.928-219.998v-218.546c0-30.065-24.462-54.524-54.52-54.524h-328.838c-26.569 0-48.728 19.111-53.527 44.301h49.266c18.822 0 34.078 15.26 34.078 34.078s-15.257 34.078-34.078 34.078h-50.262v44.297h106.493c18.818 0 34.075 15.26 34.075 34.078s-15.257 34.078-34.075 34.078h-106.493v44.297h50.262c18.822 0 34.078 15.257 34.078 34.078 0 18.818-15.257 34.075-34.078 34.075h-50.262v44.301h106.493c18.818 0 34.075 15.26 34.075 34.078s-15.257 34.078-34.075 34.078h-106.493v44.297h50.262c18.822 0 34.078 15.257 34.078 34.075 0 18.822-15.257 34.078-34.078 34.078h-50.262v46.001c0 30.065 24.462 54.52 54.524 54.52h328.838c30.061 0.003 54.52-26.676 54.52-56.737zM675.564 503.293c-63.098 40.25-147.422 111.375-147.422 162.602 0 31.582 25.428 57.272 56.679 57.272 31.248 0 56.661-25.69 56.661-57.272 0-18.818 15.257-34.075 34.078-34.075 18.818 0 34.075 15.257 34.075 34.075 0 31.582 25.41 57.272 56.651 57.272 31.248 0 56.675-25.69 56.675-57.272 0-51.224-84.313-122.349-147.397-162.602z" />
<glyph unicode="&#xe924;" glyph-name="medical-bag2" d="M985.496 657.171c-25.669 24.283-55.848 36.423-90.537 36.423h-106.146v110.309c0 40.238-13.876 74.579-41.626 103.024s-61.051 42.667-99.902 42.667h-270.569c-38.852 0-72.152-14.222-99.902-42.667-27.752-28.445-41.626-62.787-41.626-103.024v-110.309h-106.146c-34.689 0-64.868-12.14-90.537-36.423s-38.504-54.461-38.504-90.537v-491.187c0-34.689 12.835-64.868 38.504-90.537s55.848-38.504 90.537-38.504h765.919c34.689 0 64.868 12.835 90.537 38.504s38.504 56.543 38.504 92.618v489.106c0 36.075-12.835 66.254-38.504 90.537zM320.52 803.902c0 15.262 5.896 29.138 17.691 41.626s24.63 18.732 38.504 18.732h270.569c13.876 0 26.709-6.244 38.504-18.732s17.691-26.364 17.691-41.626v-110.309h-382.959v110.309zM747.187 225.301h-149.854v-149.854h-170.667v149.854h-149.854v170.667h149.854v147.772h170.667v-147.772h149.854v-170.667z" />
<glyph unicode="&#xe925;" glyph-name="sringe5" d="M1018.901 802.008l-152.876 152.876c-6.804 6.804-17.802 6.804-24.606 0s-6.804-17.802 0-24.606l25.459-25.459-135.631-129.993-36.335 36.335c0 0-0.017 0.017-0.017 0.017l-39.92 39.92c-6.804 6.804-17.802 6.804-24.606 0s-6.804-17.802 0-24.606l27.652-27.652-429.167-429.132c-6.804-6.804-6.804-17.802 0-24.606l33.046-33.046-34.23-34.23c-3.272-3.272-5.099-7.692-5.099-12.303s1.827-9.049 5.099-12.303l30.123-30.105-34.23-34.23 29.34-29.34 34.23 34.23 30.105-30.105c3.393-3.393 7.848-5.099 12.303-5.099s8.91 1.705 12.303 5.099l34.23 34.23 33.046-33.046c3.393-3.393 7.848-5.099 12.303-5.099s8.91 1.705 12.303 5.099l429.149 429.149 27.652-27.652c3.393-3.393 7.848-5.099 12.303-5.099s8.91 1.705 12.303 5.099c6.804 6.804 6.804 17.802 0 24.606l-82.45 82.433 135.631 129.993 25.981-25.981c3.393-3.393 7.848-5.099 12.303-5.099s8.91 1.705 12.303 5.099c6.804 6.804 6.804 17.82 0 24.606zM329.523 200.562l-64.944 64.944 21.926 21.926 64.944-64.944-21.926-21.926zM421.405 201.762l-33.011 33.011c0 0-0.017 0.017-0.017 0.017l-89.568 89.568c0 0-0.017 0.017-0.017 0.017l-33.029 33.029 42.67 42.67 38.441-38.441c2.541-2.541 5.882-3.828 9.223-3.828s6.682 1.27 9.223 3.828c5.099 5.099 5.099 13.365 0 18.463l-38.441 38.441 48.43 48.43 77.821-77.839c2.541-2.541 5.882-3.828 9.223-3.828 3.324 0 6.682 1.27 9.223 3.828 5.099 5.099 5.099 13.365 0 18.463l-77.821 77.839 37.745 37.745 38.441-38.458c2.541-2.541 5.882-3.828 9.223-3.828s6.682 1.27 9.223 3.828c5.099 5.099 5.099 13.365 0 18.463l-38.441 38.458 48.43 48.43 77.821-77.821c2.541-2.541 5.882-3.828 9.223-3.828s6.682 1.27 9.223 3.828c5.099 5.099 5.099 13.365 0 18.463l-77.821 77.821 37.745 37.745 38.458-38.458c2.541-2.541 5.882-3.828 9.223-3.828s6.682 1.27 9.223 3.828c5.099 5.099 5.099 13.365 0 18.463l-38.458 38.458 48.43 48.43 77.839-77.821c2.541-2.541 5.882-3.828 9.223-3.828s6.682 1.27 9.223 3.828c5.099 5.099 5.099 13.365 0 18.463l-77.839 77.821 42.67 42.67 155.66-155.66-416.811-416.881zM943.69 828.006l-135.631-129.975-52.188 52.188 135.631 129.993 52.188-52.206zM224.903 171.709l10.807-10.807-214.949-214.949-20.761-9.954 9.519 20.308 215.384 215.401z" />
<glyph unicode="&#xe926;" glyph-name="chemicals" d="M815.643 525.32c-38.424 53.942-90.502 95.914-150.755 122.638v71.167h18.347c50.686 0 91.333 41.972 91.333 92.658v57.266c0 50.708-40.67 90.951-91.333 90.951h-342.92c-50.686 0-92.636-40.243-92.636-90.951v-57.266c0-50.686 41.95-92.658 92.636-92.658h17.045v-71.548c-131.195-60.297-217.991-192.974-217.991-339.192 0-205.348 167.35-372.384 372.901-372.384 205.415 0 372.339 167.036 372.339 372.384 0 78.802-24.007 153.854-68.966 216.936zM512.382 22.707c-157.784 0-286.171 128.163-286.171 285.7 0 120.168 75.681 228.411 189.022 269.351 17.18 6.221 28.139 22.524 28.139 40.782v152.169c0 19.875-15.136 36.583-35.033 36.583h-58.591c-8.017 0-13.901 5.906-13.901 13.923v38.402c0 8.017 5.884 14.328 13.901 14.328h324.034c8.017 0 14.777-6.31 14.777-14.328v-38.402c0-8.017-6.76-13.923-14.777-13.923h-58.546c-19.897 0-36.358-16.731-36.358-36.583v-152.214c0-18.437 11.857-34.876 29.307-40.939 115.362-40.086 189.942-145.724 189.942-269.149 0-157.537-128.163-285.7-285.744-285.7zM634.122 408.543c0-27.435-22.24-49.675-49.675-49.675s-49.675 22.24-49.675 49.675c0 27.435 22.24 49.675 49.675 49.675s49.675-22.24 49.675-49.675zM524.239 518.56c0-15.541-12.598-28.139-28.139-28.139s-28.139 12.598-28.139 28.139c0 15.541 12.598 28.139 28.139 28.139s28.139-12.598 28.139-28.139zM492.777 319.792c0 44.33-35.954 80.307-80.284 80.307-44.353 0-80.307-35.999-80.307-80.307 0-7.725 1.1-15.742 3.122-22.188h-66.361c4.626-131.195 111.612-234.969 243.233-234.969 131.666 0 238.629 103.797 243.256 234.969h-265.78c2.044 6.445 3.122 14.462 3.122 22.188z" />
<glyph unicode="&#xe927;" glyph-name="bandage2" d="M377.351 895.257c-86.323 86.323-226.282 86.323-312.607 0-86.325-86.327-86.325-226.286 0-312.611l581.906-581.9c86.325-86.327 226.282-86.327 312.607 0 86.327 86.325 86.327 226.282 0 312.607l-581.906 581.904zM352.609 772.171c14.301 14.301 37.486 14.305 51.791 0.002 14.299-14.301 14.299-37.488-0.002-51.789-14.301-14.299-37.486-14.299-51.786 0-14.303 14.301-14.303 37.49-0.002 51.786zM105.435 802.773c-14.303 14.305-14.303 37.49 0 51.793 14.301 14.299 37.488 14.299 51.789-0.002 14.299-14.299 14.299-37.486 0-51.786-14.301-14.305-37.488-14.305-51.789-0.004zM146.631 679.188c-14.303 14.303-14.303 37.49 0 51.791 14.301 14.303 37.488 14.303 51.791 0 14.299-14.301 14.299-37.488-0.002-51.791-14.303-14.301-37.488-14.301-51.789 0zM239.614 555.601c-14.301-14.305-37.49-14.305-51.789-0.002-14.303 14.301-14.299 37.488 0.002 51.791 14.301 14.299 37.486 14.301 51.786 0 14.303-14.301 14.303-37.488 0-51.789zM229.022 761.578c-14.303 14.303-14.303 37.49 0 51.793 14.299 14.299 37.488 14.299 51.791-0.002 14.301-14.299 14.301-37.488 0-51.786-14.303-14.305-37.492-14.307-51.791-0.004zM270.218 637.991c-14.305 14.305-14.301 37.488 0 51.791 14.299 14.301 37.486 14.301 51.786 0 14.299-14.303 14.299-37.486 0-51.786-14.301-14.305-37.488-14.305-51.786-0.004zM433.691 298.186l-71.502 71.5c-62.994 62.992-62.994 165.127 0 228.125 62.992 62.992 165.134 62.992 228.125 0l71.498-71.505c62.998-62.994 62.996-165.127 0-228.121-62.994-62.996-165.127-62.998-228.121 0zM671.393 123.825c-14.301-14.301-37.49-14.301-51.791-0.004-14.299 14.303-14.299 37.49 0.004 51.791 14.299 14.303 37.488 14.303 51.786 0 14.299-14.299 14.299-37.486 0-51.786zM701.998 206.216c-14.303 14.299-14.303 37.488 0 51.786 14.301 14.305 37.488 14.305 51.786 0.004 14.301-14.299 14.301-37.49 0-51.791s-37.488-14.299-51.786 0zM794.98 82.629c-14.301-14.299-37.49-14.299-51.793 0-14.299 14.301-14.299 37.49-0.002 51.793 14.301 14.299 37.49 14.299 51.795 0 14.303-14.305 14.303-37.492 0-51.793zM784.388 288.607c-14.299 14.301-14.303 37.488 0 51.791 14.301 14.299 37.488 14.299 51.789 0 14.299-14.299 14.299-37.49 0-51.791-14.303-14.299-37.488-14.297-51.789 0zM825.583 165.020c-14.299 14.301-14.299 37.49 0 51.793 14.301 14.303 37.49 14.301 51.793 0 14.301-14.299 14.301-37.488 0-51.793-14.305-14.305-37.492-14.305-51.793 0zM918.565 41.435c-14.301-14.299-37.488-14.299-51.786 0-14.303 14.301-14.303 37.488 0 51.786 14.301 14.303 37.488 14.303 51.789 0.004 14.299-14.305 14.299-37.49-0.002-51.791zM959.257 582.645c86.325 86.325 86.325 226.284 0 312.609s-226.282 86.325-312.609 0l-96.982-96.984 312.609-312.609 96.982 96.984zM64.745 313.351c-86.327-86.325-86.327-226.282 0-312.607 86.327-86.327 226.286-86.327 312.605 0l96.986 96.984-312.609 312.607-96.982-96.984z" />
<glyph unicode="&#xe928;" glyph-name="doctor2" d="M703.854 768.425c0-105.804-85.771-191.575-191.575-191.575s-191.575 85.771-191.575 191.575c0 105.804 85.771 191.575 191.575 191.575s191.575-85.771 191.575-191.575zM706.038 512.776h-2.407l-8.179-106.285c-1.159-14.865-12.012-27.167-26.61-30.131l-60.976-12.414 14.999-44.217c2.897-8.536 2.206-17.852-1.894-25.875 0 0-59.193-115.935-78.939-154.557-0.067-0.134-9.717-15.333-29.017-15.333-23.847 0-30.287 15.222-30.332 15.333-19.768 38.6-78.961 154.557-78.961 154.557-4.078 8.023-4.769 17.339-1.894 25.83l14.999 44.217-61.021 12.414c-14.575 2.942-25.451 15.244-26.566 30.087l-8.201 106.351h-2.407c-132.605 0-240.071-107.488-240.071-240.071v-269.444c0-37.152 30.109-67.261 67.261-67.261h732.447c37.152 0 67.261 30.109 67.261 67.261v270.158c-0.134 132.204-107.287 239.38-239.491 239.38zM791.774 52.425h-50.59v-49.699c0-18.409-14.754-33.296-33.118-33.296-18.386 0-33.118 14.887-33.118 33.296v49.699h-49.744c-18.364 0-33.296 14.709-33.296 33.118s14.932 33.14 33.296 33.14h49.744v50.613c0 18.409 14.731 33.341 33.118 33.341 18.364 0 33.118-14.932 33.118-33.341v-50.613h50.59c18.364 0 33.296-14.731 33.296-33.14s-14.91-33.118-33.296-33.118zM557.476 421.78l73.479 14.932 5.861 76.086h-249.052l5.861-76.086 73.456-14.932c9.405-1.917 17.473-7.756 22.264-16.069 4.769-8.268 5.75-18.23 2.674-27.301l-22.621-66.748 42.879-83.953 42.902 83.953-22.643 66.748c-3.076 9.048-2.095 19.033 2.697 27.301 4.769 8.313 12.882 14.152 22.242 16.069z" />
<glyph unicode="&#xe929;" glyph-name="angel" d="M702.496 712.926c-49.428 0-94.549-28.088-116.338-72.502l-22.464-45.796v52.095c0 35.126 10.798 69.032 31.013 97.763 11.794 16.808 18.768 37.215 18.768 59.262 0 57.269-46.31 103.708-103.644 103.708s-104.158-46.439-104.158-103.708c0-21.371 6.845-41.265 17.965-57.783 18.865-28.024 29.020-61.061 29.020-94.838v-43.804l-15.233 31.848c-21.532 45.057-67.039 73.756-117.013 73.756h-284.996c-12.662 0-24.36-6.749-30.691-17.708-6.299-10.959-6.299-24.457 0.032-35.416 17.772-30.82 43.032-56.626 73.434-75.073l207.673-125.979c-5.656 9.77-10.22 19.861-13.369 29.727-7.552 24.232-8.709 44.414-8.002 56.98 1.189 58.587 39.208 84.747 77.002 81.083 23.139-2.282 42.518-15.715 53.188-34.484l22.046-39.208c0.257 0.161 38.983-30.852 95.352-46.214 61.576 19.572 95.609 46.375 95.77 46.214l21.854 38.854c18.576 33.134 60.611 44.928 93.842 26.289 20.215-11.377 36.958-37.569 36.669-72.567-0.546-20.247-0.514-32.684-7.97-56.916-3.149-9.577-7.52-19.379-13.016-28.988l206.613 125.208c30.402 18.415 55.63 44.221 73.467 75.073 6.299 10.959 6.299 24.457 0 35.416-6.331 10.959-18.061 17.708-30.691 17.708h-286.121zM512.37 272.898c4.789 1.382 35.383 9.77 45.346 12.405-9.191 4.467-40.14 18.447-45.346 20.729-5.335-2.25-36.187-16.262-45.41-20.729 9.995-2.635 40.558-11.023 45.41-12.405zM543.414 109.929c-10.155 0.675-52.063 0.675-62.154 0-5.238-0.321-10.155-0.064-16.069-0.803-4.114-0.546-7.199-1.125-12.598-1.703v-63.568c0-30.563 24.939-55.341 55.566-55.341 30.563 0 55.502 24.778 55.502 55.341v64.532c0 0.289-3.214 0.546-4.917 0.707-5.978 0.739-10.123 0.482-15.33 0.836zM341.912 141.134c-4.049-8.356-6.845-17.001-7.842-25.485-3.696-24.553 3.149-43.546 9.834-56.594 14.462-25.999 28.153-34.548 28.153-34.548s-0.996 3.889-1.768 11.055c-8.838 82.658 48.335 90.821 51.388 91.721-46.407 7.713-69.289 15.747-77.162 18.961-0.9-1.703-1.8-3.374-2.603-5.11zM625.976 272.898v0.386zM719.143 345.69c-20.568 33.262-64.597 60.129-74.141 65.529 14.623 9.545 28.249 20.182 40.043 32.298 43.804 44.8 44.511 92.685 44.157 103.001-0.675 10.252-0.996 15.747-0.996 15.747-1.928 24.907-23.718 43.514-48.656 41.618-24.874-1.96-43.514-23.75-41.554-48.656-0.482 0.161-0.096-8.934-5.817-18.672-3.182-4.821-7.681-11.184-17.194-18.672-9.448-7.392-22.978-16.069-40.301-24.489-17.772-8.709-38.822-17.194-62.379-26.289-18.8 7.231-35.898 14.076-51.034 20.922-3.985 1.768-7.745 3.567-11.409 5.367-17.386 8.42-30.916 17.129-40.301 24.489-9.513 7.488-14.076 13.851-17.258 18.672-5.72 9.738-5.335 18.8-5.753 18.672 1.993 24.907-16.679 46.664-41.618 48.656-24.842 1.896-46.632-16.712-48.624-41.618 0 0-0.354-5.496-0.964-15.747-0.386-10.316 0.771-26.449 7.102-45.925 6.524-19.347 26.321-55.437 77.098-89.375 59.455-29.984 131.507-64.532 132.728-64.082 10.155-4.242 125.979-50.392 116.049-72.374-1.318-4.339-9.095-7.102-19.893-10.67-11.152-4.146-24.264-7.488-38.179-10.798-7.777-1.896-15.812-3.696-23.91-5.656 66.364-21.725 116.499-48.496 137.003-62.315 0.868-0.546 1.607-1.061 2.346-1.639 4.628 2.957 9.256 6.331 13.948 10.22 24.553 21.211 62.925 81.533 19.508 151.786zM660.556 172.051c-51.356 36.348-233.897 88.186-244.246 91.946-10.734 3.599-18.19 8.581-19.604 10.734-1.993 5.785 2.346 9.481 3.342 10.413 10.638 11.312 55.566 37.119 76.584 46.6-51.806 22.914-107.372 46.792-128.647 59.101-14.558-11.023-31.656-24.103-42.486-45.282-18.768-36.83-18.768-76.23-18.768-76.23 0-25.839 17.322-59.551 38.276-75.523 5.496-4.596 10.895-8.42 16.229-11.73 15.008-9.288 29.181-14.173 41.779-18.029 34.805-10.155 64.114-13.819 91.946-16.84 26.385-3.214 51.838-6.299 76.102-9.256 8.067-0.932 74.913-8.195 93.681-36.83 6.877-10.509 10.348-24.039 11.12-36.091 0.932-12.244-0.386-22.561-1.446-29.567-0.836-7.167-1.864-11.055-1.864-11.055s15.651 7.584 28.217 34.548c34.966 75.555-19.797 112.803-20.215 113.092z" />
<glyph unicode="&#xe92a;" glyph-name="money" d="M865.391 242.141c21.040 42.686 22.416 94.155-13.986 127.386 16.435 48.355 2.9 109.041-45.955 126.992 8.701 29.79 10.995 63.291-4.809 90.058-14.264 24.161-43.317 30.47-69.616 29.774 28.594 61.71 71.837 138.717 128.819 194.11l8.013 7.775-6.735 8.906c-4.604 6.096-114.432 148.81-254.050 105.608l-9.643-2.982 0.762-10.053c0.197-2.54 18.172-249.962-34.132-360.322-4.736-2.532-9.447-5.063-14.108-7.595-7.636 23.629-17.001 47.413-28.192 70.206-22.76 52.73-57.99 122.248-105.641 181.812 22.482 19.753 11.020 52.198 2.515 69.297 29.839 25.939 73.885 55.172 124.731 60.489 4.998-13.961 16.648-38.704 37.5-45.856-0.778 18.418-1.589 29.683-1.639 30.208l-1.516 20.089 19.245 5.965c7.472 2.31 15.026 4.031 22.629 5.432l-7.874 2.433c-139.634 43.194-249.454-99.513-254.058-105.608l-6.735-8.906 7.996-7.783c60.719-59.031 105.862-142.616 134.276-206.072-85.134-29.151-116.153-102.667-143.518-167.531-19.008-45.070-35.64-84.397-66.454-99.431l-1.024 3.122-9.504 29.184-138.118-44.996 132.875-407.842 138.127 44.996-7.988 24.522c125.247 36.344 255.664 50.461 382.361 80.661 38.917 9.275 79.366 18.426 100.84 54.844 18.27 30.929 4.932 73.123-15.395 101.11zM209.775 278.183l-13.15 40.367 40.343 13.142 13.15-40.351-40.343-13.158zM620.591 690.309c3.695-15.395 16.591-30.576 35.427-39.31 28.323-13.117 59.211-6.661 68.969 14.444 9.783 21.089-5.26 48.831-33.575 61.956-28.045 12.986-58.564 6.751-68.658-13.854 4.678 57.073 4.49 113.367 3.302 153.038 28.438 0.074 43.456 31.486 49.339 47.905 50.838-5.317 94.884-34.558 124.731-60.489-8.513-17.099-19.975-49.535 2.515-69.297-44.652-55.819-78.358-120.323-101.151-171.62-35.435-6.251-70.206-20.098-103.503-36.287 11.184 33.403 18.287 73.066 22.605 113.515zM495.057 619.358c-0.066-0.090-0.123-0.172-0.188-0.262l-0.959 2.81c0.385-0.852 0.778-1.721 1.147-2.548zM826.425 151.281c-32.944-20.401-80.554-26.046-117.71-33.575-105.297-21.351-220.729-35.361-324.043-65.413l-85.839 256.877c47.897 19.95 76.916 75.868 97.768 125.313 23.53 55.786 47.946 113.326 108.902 136.439 7.603-18.443 12.658-36.017 18.77-57.482 3.244-11.413 16.353-14.067 25.685-8.963 49.199 26.881 102.52 55.909 158.609 65.569 0.401-0.139 0.819-0.229 1.213-0.385 0.098 0.213 0.188 0.442 0.27 0.655 0.942 0.156 1.868 0.352 2.81 0.492 16.984 2.614 44.513 4.351 53.165-14.797 6.481-14.321 4.203-31.379 1.155-46.242-1.794-8.734-6.014-21.875-6.882-24.014-3.785-9.299-0.164-23.063 11.61-24.464 45.021-5.334 51.452-56.442 34.493-91.32-3.081-6.325-2.392-16.091 3.875-20.524 35.623-25.153 29.716-65.028 9.922-99.029-2.736-4.686-2.72-12.912 0.967-17.181 19.516-22.58 37.737-61.841 5.26-81.955zM527.346 746.514c-28.315-13.125-43.358-40.867-33.575-61.956 9.766-21.097 40.646-27.561 68.969-14.444 4.301 1.991 8.242 4.359 11.896 6.956 2.917 23.317 4.826 47.364 6.006 70.837-14.149 7.366-34.28 7.415-53.296-1.393z" />
<glyph unicode="&#xe92b;" glyph-name="dollar" d="M0 98.908h1024v512.002h-1024v-512.002zM46.545 564.365h930.908v-418.91h-930.908v418.91zM46.545 704h930.908v-46.545h-930.908v46.545zM93.090 797.092h837.818v-46.545h-837.818v46.545zM540.066 372.877c-8.331 5.122-18.897 10.565-31.652 16.386-14.754 6.654-24.576 12.378-29.417 17.222-4.934 4.931-7.447 11.17-7.447 18.663 0 8.239 3.072 15.082 9.169 20.572 6.097 5.493 13.824 8.239 23.087 8.239 14.989 0 27.089-8.426 36.352-25.321l30.814 17.222c-7.168 12.847-14.709 22.389-22.623 28.625-7.913 6.238-18.059 10.332-30.533 12.335v30.999h-27.695v-30.999c-8.517-2.234-16.198-5.261-22.946-9.169-6.609-3.91-12.288-8.518-16.896-13.824-4.563-5.353-8.051-11.264-10.519-17.779-2.419-6.562-3.631-13.637-3.631-21.226 0-16.009 5.12-29.788 15.36-41.285 6.423-7.68 19.874-16.105 40.307-25.321 9.914-4.516 18.059-8.706 24.435-12.569 6.378-3.863 11.217-7.307 14.475-10.379 6.423-6.33 9.636-14.709 9.636-25.133 0-11.682-3.863-21.226-11.543-28.627-7.819-7.494-17.5-11.215-29.090-11.215-11.915 0-21.457 3.258-28.625 9.82-6.842 6.843-12.659 18.295-17.408 34.304l-34.769-7.262c5.167-22.667 13.173-39.424 24.017-50.268 10.844-10.846 26.624-17.967 47.29-21.367v-31.791h27.695v32.723c17.826 4.749 32.069 13.918 42.682 27.509 10.752 13.683 16.151 29.51 16.151 47.429 0 18.248-5.958 33.794-17.875 46.641-4.232 4.794-10.514 9.725-18.8 14.846z" />
<glyph unicode="&#xe92c;" glyph-name="euro" d="M118.104 430.599l321.716-251.736 207.153 264.824-6.693 22.894c-5.707 19.366-3.048 39.666 7.329 55.816 10.533 16.085 27.759 26.929 47.67 29.756l13.373 1.855c8.042 1.18 16.123 0.752 24.114-0.545l121.192 154.878-321.677 251.658-414.176-529.401zM604.959 476.44c-51.393-65.687-146.278-77.232-211.914-25.878-65.7 51.341-77.322 146.226-25.904 211.914 51.406 65.739 146.304 77.284 211.926 25.904 65.648-51.367 77.322-146.291 25.891-211.939zM286.356 46.062h320.73l-0.402-110.062h-320.925l0.597 110.062zM647.090 86.598c-28.784-10.351-75.338-18.406-105.924-18.406h-189.369c-39.329 0-71.356 32.052-71.356 71.433v137.004c13.555-10.714 27.149-21.61 40.821-32.286v-104.64c0-16.902 13.698-30.625 30.587-30.625h189.369c25.8 0 67.957 7.251 92.188 15.942l211.511 75.688c7.692 2.815 13.776 8.289 17.213 15.773 3.437 7.329 3.853 15.656 1.064 23.284l-81.668 224.625c-6.33 17.265-27.759 30.12-45.984 27.525l-12.712-1.79c-7.549-1.064-13.646-4.735-17.213-10.403-3.606-5.604-4.423-12.66-2.257-19.898l36.566-124.979 22.972-75.117h-111.606l20.469 40.821h13.555c4.41 0 10.481 0.947 13.905 5.681 3.009 4.073 3.541 10.17 1.531 17.096l-36.566 125.070c-5.435 18.51-2.906 38.084 7.082 53.598 10.014 15.384 26.656 25.865 45.763 28.511l12.907 1.855c37.397 5.331 76.985-18.406 89.918-53.974l81.694-224.716c6.576-17.926 5.656-37.215-2.478-54.558-8.133-17.291-22.466-30.366-40.367-36.826l-211.615-75.688zM426.759 626.895c-10.325-13.153-13.088-28.057-8.354-44.673 2.568-9.158 7.861-18.393 15.877-27.914l46.982 60.070 11.791-16.461-45.153-57.697c3.463-3.152 7.303-6.213 11.467-9.456 1.855-1.414 3.593-2.841 5.396-4.151l48.876 62.483 11.817-16.474-44.090-56.387c10.727-5.63 21.273-8.924 31.624-9.936 17.148-1.712 31.391 4.618 42.702 19.055 10.377 13.283 12.245 28.187 5.565 44.583-3.502 8.704-9.767 18.095-18.783 27.979l13.724 17.472c15.397-14.515 25.294-30.729 29.679-48.37 5.331-21.169 1.012-40.717-13.023-58.592-12.012-15.397-27.785-24.023-47.073-25.813-18.303-1.764-37.838 3.269-58.721 15.202l-21.182-27.149-11.843 16.461 16.551 21.104c-3.061 2.101-6.213 4.423-9.3 6.875-2.568 2.011-5.24 4.242-7.718 6.551l-20.067-25.722-11.791 16.448 17.888 22.843c-11.181 12.803-19.068 26.15-23.439 40.354-7.446 23.971-3.476 45.789 11.999 65.505 13.153 16.85 28.55 25.722 46.399 26.747 17.901 1.064 33.881-3.152 48.111-12.673l-13.698-17.485c-11.739 5.941-22.933 8.315-33.531 7.018-10.714-1.18-20.287-7.018-28.68-17.797z" />
<glyph unicode="&#xe92d;" glyph-name="envelope2" d="M0 832v-136.534l512-418.132 512 418.132v136.534h-1024zM938.666 738.132l-426.666-349.866-426.666 349.866v8.534h853.334v-8.534h-0.002zM938.666 149.334h-853.332v341.332h-85.334v-426.666h1024v426.666h-85.334z" />
<glyph unicode="&#xe92e;" glyph-name="notes" d="M573.159 63.61c-7.699-10.884-18.973-18.79-31.828-22.342l-63.931-17.461c-5.018-1.421-10.197-2.154-15.421-2.154-11.778 0-23.166 3.598-32.768 10.357-14.092 9.807-22.937 25.275-24.335 42.025l-5.614 66.016c-1.329 13.542 2.314 27.108 10.014 38.015l2.36 3.391h-228.044c-18.4 0-33.318 15.169-33.318 33.524 0 18.423 14.917 33.593 33.318 33.593h276.027l61.686 88.106h-337.713c-18.4 0-33.318 15.169-33.318 33.57s14.917 33.57 33.318 33.57l385.214 0.985 144.453 207.124v153.366c0 25.206-19.5 45.554-44.637 45.554h-110.585v-87.51c0-41.315-33.776-73.991-75.022-73.991h-222.407c-41.338 0-73.945 32.699-73.945 73.991v87.51h-111.777c-25.183 0-45.554-20.371-45.554-45.554v-782.596c0-25.206 20.394-46.677 45.554-46.677h593.69c25.206 0 44.66 21.494 44.66 46.677v279.831l-140.076-198.92zM183.59 559.089h376.347c18.354 0 33.295-15.146 33.295-33.547s-14.94-33.57-33.295-33.57h-376.347c-18.4 0-33.318 15.169-33.318 33.57s14.917 33.547 33.318 33.547zM261.224 693.368h222.201c16.819 0 30.499 13.657 30.499 30.522v127.794c0 16.865-13.68 30.522-30.499 30.522h-33.478c-0.229 42.965-35.151 77.794-78.207 77.794-43.079 0-77.955-34.807-78.207-77.794h-32.309c-16.865 0-30.499-13.657-30.499-30.522v-127.771c0-16.865 13.634-30.545 30.499-30.545zM371.764 916.669c19.134 0 34.647-15.398 34.853-34.486h-69.774c0.229 19.088 15.765 34.486 34.922 34.486zM994.349 754.274c-1.031 5.683-4.262 10.655-8.982 13.955l-55.636 38.771c-3.758 2.635-8.089 3.895-12.351 3.895-6.783 0-13.542-3.208-17.69-9.235l-394.105-565.139 91.039-63.496 394.151 565.116c3.254 4.697 4.56 10.495 3.575 16.132zM443.509 144.246l5.706-66.36c0.275-3.827 2.314-7.241 5.408-9.441 2.2-1.512 4.789-2.383 7.356-2.383 1.123 0 2.269 0.16 3.368 0.481l64.275 17.598c2.91 0.802 5.431 2.589 7.172 5.041l24.129 34.601-91.108 63.519-24.129-34.601c-1.696-2.452-2.498-5.454-2.177-8.455z" />
<glyph unicode="&#xe92f;" glyph-name="people" d="M969.929 245.756l-0.143 0.327c6.841 37.17 3.552 75.458-10.143 110.777l-0.434 0.72c0.547 6.157 0.869 12.463 0.869 18.841 0 36.872-9.965 72.644-28.145 103.817-2.284 40.787-20.286 79.967-51.727 112.354 4.747 8.638 7.502 17.764 7.502 27.33 0 15.991-7.175 38.58-38.437 59.955 7.787 9.632 12.315 20.358 12.315 32.202 0 31.518-31.227 58.122-86.577 74.768 4.926 8.805 8.257 18.002 8.257 27.782 0 34.356-32.024 64.446-84.114 80.687-6.598 36.795-55.648 64.684-117.845 64.684-9.162 0-16.55-7.329-16.55-16.497s7.389-16.532 16.55-16.532c48.794 0 85.238-20.667 85.893-39.395l-0.292-0.601-0.107-2.046c-2.54-18.24-38.074-37.836-85.565-37.836-8.329 0-16.229 1.16-24.129 2.302-6.556 17.764-23.505 30.572-43.559 30.572-20.102 0-37.092-12.844-43.666-30.572-7.823-1.142-15.795-2.302-24.106-2.302-49.211 0-86.012 21.048-86.012 39.883s36.807 39.883 86.012 39.883c9.168 0 16.556 7.407 16.556 16.538s-7.424 16.497-16.556 16.497c-62.126 0-111.212-27.854-117.768-64.642-52.703-16.283-84.167-45.939-84.167-80.693 0-9.78 3.367-18.983 8.239-27.782-55.35-16.717-86.541-43.363-86.541-74.768 0-11.845 4.527-22.565 12.35-32.208-30.899-21.191-38.473-43.613-38.473-59.913 0-9.596 2.772-18.763 7.537-27.437-20.411-20.994-35.355-44.41-43.886-69.931-4.676-13.879-6.972-28.187-7.716-42.583l-1.594-1.814c-17.514-30.715-26.753-65.868-26.753-101.699 0-6.306 0.345-12.535 0.886-18.763-12.35-31.447-15.902-65.208-11.934-98.57l-0.886-1.987c-7.984-33.904-4.783-73.144 8.858-116.387l-0.744-3.367c-0.327-25.432 3.004-50.496 9.869-74.548 15.884-55.648 49.157-98.243 91.217-116.828 15.015-6.627 30.757-9.965 46.403-9.965 17.478 0 34.939 4.129 51.453 12.315 52.292 25.932 75.714 90.92 89.801 134.026 18.097 27.538 29.668 57.527 38.128 79.807 3.26 8.584 6.122 16.193 8.84 22.136l1.487 6.371c9.114 17.175 16.318 33.838 22.059 47.42 3.605 8.584 6.758 16.193 9.727 22.065l1.356 4.926c6.538 6.586 12.356 12.386 17.336 16.729l4.004 5.182c3.968 1.339 7.972 2.57 11.898 4.093v-2.427c0-25.712 20.881-46.581 46.676-46.581 25.7 0 46.563 20.828 46.563 46.581v2.427c3.873-1.523 7.894-2.754 11.916-4.093l3.95-5.182c5.003-4.343 10.792-10.143 17.318-16.663l1.374-4.997c3.004-5.943 6.193-13.546 9.81-22.172 5.687-13.546 12.933-30.138 22.023-47.241l1.487-6.52c2.677-5.866 5.545-13.475 8.799-22.059 8.477-22.351 20.072-52.381 38.181-79.878 14.093-43.178 37.497-108.023 89.73-133.961 16.515-8.186 34.017-12.315 51.513-12.315 15.682 0 31.405 3.337 46.474 10 42.060 18.585 75.273 61.18 91.181 116.792 11.012 38.473 15.688 70.419 13.909 94.977l-0.178 0.583c6.639 28.728 7.472 58.539 2.439 87.41zM705.231 97.053l-1.011 3.189-2.392 7.389c6.74-3.873 13.659-7.537 21.339-10.47 20.572-7.823 41.947-11.702 63.352-11.702 24.998 0 49.954 5.33 73.429 15.938 30.757 13.951 56.219 36.331 75.642 64.119-1.487-6.705-3.117-13.332-5.33-19.923-14.379-42.821-43.256-76.725-79.188-92.99-30.108-13.51-63.25-14.022-93.537-1.124-22.273 9.352-39.050 26.307-52.304 45.576zM186.747 550.609l2.594 2.302c41.822-23.999 106.607-38.925 182.065-38.925 33.237 0 65.695 3.427 95.56 9.31v-80.152c-31.679-7.032-67.218-10.905-103.734-10.905-120.843 0-211.174 40.935-211.174 77.594 0.006 13.421 12.321 27.931 34.689 40.775zM560.265 523.256c29.852-5.89 62.305-9.31 95.554-9.31 74.917 0 139.285 14.688 181.125 38.36 24.165-13.13 38.217-28.49 38.217-42.512 0-36.622-90.348-77.594-211.15-77.594-36.521 0-72.049 3.843-103.746 10.905v80.152zM927.036 376.421c0-92.371-71.222-166.205-162.177-168.049-56.332-2.284-100.343 33.91-132.111 64.625 13.475-1.701 27.098-2.677 40.894-2.677 117.696 0 217.135 61.394 248.433 145.115 2.897-12.713 4.962-25.682 4.962-39.014zM929.208 222.537c-15.36-41.37-44.808-73.685-82.989-91.033-35.462-16.045-74.952-17.276-111.319-3.439-41.292 15.753-66.005 51.798-82.989 85.851 29.704-21.191 66.219-38.687 110.123-38.687h3.552c77.451 1.594 142.873 46.766 174.355 112.259 0.464-21.803-2.903-43.833-10.732-64.952zM847.271 602.176l-0.726-0.524-0.904-1.523c-24.665-27.824-97.838-53.089-189.817-53.089-33.582 0-66.255 3.641-95.554 9.983v70.324c26.729-4.599 55.57-7.299 85.197-7.299 66.397 0 135.335 13.058 176.996 37.765 20.685-11.952 32.125-25.301 32.125-37.818 0.036-5.848-2.606-11.934-7.317-17.817zM828.538 712.115c0-24.034-71.323-58.937-183.112-58.937-29.918 0-58.937 2.85-85.202 7.758v65.523c17.318-3.082 35.54-4.706 54.012-4.706 56.51 0 105.382 14.724 135.883 37.55 51.37-12.737 78.421-32.946 78.421-47.188zM693.429 862.632c34.487-11.523 56.76-29.924 56.76-47.961 0-7.585-4.271-15.396-11.66-22.725l-6.377-5.42c-22.493-17.698-64.583-31.679-117.91-31.679-18.763 0-36.985 2.011-54.012 5.414v55.677c6.996-0.744 13.802-1.85 21.125-1.85 52.697 0.036 95.952 20.072 112.074 48.544zM333.945 862.59c16.122-28.472 59.336-48.503 111.973-48.503 7.317 0 14.111 1.107 21.119 1.85v-55.677c-16.985-3.445-35.248-5.414-54.012-5.414-80.092 0-135.918 31.572-135.918 59.824 0.006 17.895 22.446 36.402 56.837 47.92zM277.113 759.302c30.537-22.785 79.349-37.586 135.918-37.586 18.508 0 36.712 1.63 54.012 4.712v-65.553c-26.265-4.89-55.279-7.752-85.161-7.752-78.081 0-135.734 17.080-163.807 35.54l-6.794 4.42c-8.132 6.538-12.499 13.094-12.499 19.001-0.042 13.796 24.808 33.975 78.331 47.218zM205.040 657.579c41.733-24.635 110.54-37.58 176.83-37.58 29.597 0 58.45 2.719 85.161 7.311v-70.33c-29.305-6.342-61.942-9.977-95.56-9.977-113.764 0-198.818 38.544-198.818 72.953 0 12.428 11.975 25.795 32.387 37.622zM269.778 51.412c-30.287-12.862-63.447-12.315-93.573 1.154-35.938 16.229-64.791 50.139-79.152 93.031-2.338 6.99-3.968 13.653-5.705 20.429 19.471-27.967 45.064-50.603 75.999-64.696 23.511-10.613 48.449-15.943 73.447-15.943 21.375 0 42.762 3.879 63.286 11.737 7.68 2.939 14.688 6.598 21.446 10.512l-2.409-7.43-1.053-3.111c-13.278-19.233-30.013-36.265-52.286-45.683zM265.245 208.336l-2.79 0.036c-90.925 1.85-162.177 75.714-162.177 168.049 0 13.475 1.791 26.693 4.783 39.526 31.102-84.007 130.641-145.663 248.611-145.663 13.76 0 27.384 0.946 40.84 2.606-31.114-29.775-73.893-64.553-129.267-64.553zM261.675 175.301l3.534-0.071c43.94 0 80.419 17.568 110.165 38.687-16.991-33.981-41.697-70.092-83.043-85.815-36.242-13.838-75.714-12.606-111.283 3.439-38.145 17.312-67.635 49.627-82.989 91.038-7.823 21.155-11.232 43.214-10.72 65.059 31.488-65.571 96.928-110.742 174.337-112.336zM247.659-21.904c-22.66-11.303-46.819-11.886-69.771-1.743-30.792 13.617-55.713 44.808-69.717 86.214 15.741-17.098 34.106-30.935 54.499-40.132 19.888-8.953 40.846-13.445 61.763-13.445 19.721 0 39.43 3.95 58.229 11.922 3.855 1.66 7.21 3.873 10.833 5.866-11.535-20.685-26.182-38.937-45.838-48.681zM353.636 303.468c-124.448 0-225.755 75.381-225.755 168.079l0.565 6.83c28.526-46.819 119.957-79.206 234.845-79.206 36.152 0 71.472 3.772 103.716 10.286v-83.138c-34.296-14.891-73.346-22.85-113.371-22.85zM560.265 409.42c32.274-6.562 67.558-10.322 103.746-10.322 111.462 0 200.757 30.501 232.126 75.018l3.117-4.563c-1.452-91.758-102.009-166.169-225.648-166.169-40.031 0-79.117 8.043-113.389 22.821l0.048 83.215zM849.52-23.648c-23.005-10.179-47.17-9.56-69.919 1.743-19.668 9.745-34.302 27.996-45.784 48.687 3.659-1.993 6.954-4.206 10.827-5.866 18.799-7.972 38.544-11.958 58.212-11.958 20.905 0 41.875 4.492 61.769 13.403 20.429 9.275 38.758 23.112 54.517 40.21-13.951-41.405-38.907-72.668-69.622-86.22z" />
<glyph unicode="&#xe930;" glyph-name="pregnant" d="M683.165 718.934c-14.821 28.316-43.913 36.361-91.573 42.19l-79.554 1.76-79.611-1.76c-47.66-5.83-76.298-22.43-91.535-42.19-48.985-75.333-75.163-159.297-84.002-248.58-5.868-59.15 86.368-58.563 92.198 0 4.751 48.039 16.884 93.788 35.906 136.906 0 0 49.004-0.814 4.372-56.5-44.613-55.705-64.26-419.594-64.26-419.594h69.976v-149.095c0-25.439 20.612-46.071 46.071-46.071 19.874 0 36.644 12.625 43.118 30.247 2.934 6.076 4.751 12.833 4.751 20.083v144.836h46.014v-144.836c0-7.249 1.855-13.931 4.732-20.083 6.568-17.622 23.262-30.247 43.118-30.247 25.496 0 46.127 20.631 46.127 46.071v149.095h69.939c0 0-8.764 376.59-68.576 425.783-59.812 49.156 8.688 50.367 8.688 50.367 19.004-43.137 31.155-88.867 35.906-136.906 5.792-58.525 98.028-59.15 92.16 0-8.858 89.226-35.017 173.19-83.964 248.523zM639.669 461.571c0-70.506-57.162-127.688-127.631-127.688-70.563 0-127.688 57.181-127.688 127.688s57.143 127.669 127.688 127.669c70.469 0 127.631-57.162 127.631-127.669zM510.543 781.718c0.416 0 0.927 0.076 1.439 0.076 0.435 0 0.927-0.076 1.382-0.076 49.269 0 89.15 39.9 89.15 89.15 0 49.231-39.881 89.132-89.15 89.132-0.454 0-0.946-0.076-1.382-0.076-0.511 0-1.022 0.076-1.439 0.076-49.288 0-89.132-39.9-89.132-89.132 0.019-49.25 39.919-89.15 89.132-89.15zM597.857 516.935c0-22.141-17.949-40.089-40.089-40.089s-40.089 17.949-40.089 40.089c0 22.141 17.949 40.089 40.089 40.089s40.089-17.949 40.089-40.089zM553.13 455.723c-8.934 5.489-16.562 12.587-22.108 20.821-6.398 9.407-19.269 11.849-28.657 5.47-9.426-6.379-11.868-19.174-5.47-28.6 6.152-9.085 13.761-17.111 22.373-24.076-4.959 1.969-11.338 5.111-19.515 9.975-9.407 5.565-20.461 5.943-29.849 2.063-2.347 0.151-4.732-0.019-7.117-0.738l-40.525-11.925c-10.902-3.237-17.149-14.65-13.931-25.591 2.158-7.325 7.95-12.455 14.802-14.158 3.445-0.852 7.155-0.852 10.77 0.227l19.269 5.697c2.782-5.262 7.003-9.861 12.492-13.155 13.439-7.95 28.203-15.559 44.007-19.477 14.385-3.558 29.565-4.032 45.219 1.192 25.477 8.555 44.765 29.698 59.112 64.715 6.984 17.092-1.174 36.644-18.265 43.648-16.373 6.644-34.865-0.53-42.607-16.089z" />
<glyph unicode="&#xe931;" glyph-name="broken-arm" d="M544.465 757.146l-26.889-27.077-26.085 27.369c-0.063-0.031-0.146-0.031-0.24-0.052-13.763-3.289-43.816-19.559-45.926-20.874-0.219-0.125-0.418-0.272-0.637-0.397l56.921-145.034 56.441 161.721c-4.48 1.681-8.991 3.216-13.586 4.344zM501.015 562.887l-0.010 0.094-65.609 167.757c-0.867-0.553-1.744-1.107-2.621-1.681l-26.043-165.752-9.743 0.073 23.85 157.44c-10.171-7.268-87.507-63.719-118.249-163.956-4.553-14.651-5.221-35.389 4.313-47.429 10.119-12.792 19.861-19.057 95.088-22.754 0 0.198 92.488 0.543 92.488 0.543 21.062 0 38.177 17.115 38.177 38.146 0.010 18.828-13.721 34.397-31.64 37.519zM549.29 694.837l-42.908-122.98c8.281-2.12 15.737-6.276 21.657-12.061l21.25 135.041zM568.671 748.166l-31.15-197.914c0 0 7.487-15.444 6.171-27.484-2.872-26.367-22.65-45.518-49.184-45.518h-87.413c0 0 0-20.436 0-52.254s8.135-38.094 8.135-38.094l0.021-405.968 0.533 0.042c2.339-25.166 23.245-44.965 49.027-44.965 27.349 0 49.507 22.19 49.507 49.549v16.311h-0.031v19.559h0.010v12.646h-0.010v19.579h0.010l-0.010 37.446v238.88c1.953-0.094 3.926-0.24 5.879-0.24 0.397 0 0.752 0.052 1.17 0.052v-344.243c0-27.349 22.159-49.539 49.507-49.539 27.338 0 49.539 22.19 49.539 49.539v398.878c0 0 7.675 9.074 7.675 40.569s0 155.602 0 155.602c2.966-3.112 24.205-95.067 19.016-148.814-2.015-20.843 13.116-39.42 33.969-41.529 1.284-0.146 2.558-0.209 3.822-0.209 19.245 0 35.744 14.598 37.687 34.157 14.651 146.047-50.186 283.061-153.879 323.964zM613.719 862.583c0-53.802-43.615-97.417-97.417-97.417s-97.417 43.615-97.417 97.417c0 53.802 43.615 97.417 97.417 97.417s97.417-43.615 97.417-97.417z" />
<glyph unicode="&#xe932;" glyph-name="gift" d="M854.903 200.219l-312.101-180.184v232.533l-9.962-4.981c-6.845-2.571-13.947-3.888-20.792-3.888-6.748 0-13.625 1.285-20.535 3.792l-1.671 0.225-5.399 2.507-3.181 1.607v-231.794l-312.101 180.184v208.753l-61.507 30.947v-257.47c0-10.99 5.881-21.145 15.393-26.608l373.608-215.758c4.724-2.732 10.058-4.113 15.393-4.113s10.637 1.35 15.393 4.113l373.576 215.758c9.544 5.463 15.393 15.618 15.393 26.608v257.534l-61.507-30.818v-208.945zM534.286 816.707l-12.661 4.145c-6.202 2.025-12.951 2.025-19.217 0l-12.629-4.145c8.227-18.896 15.682-37.824 22.206-55.819 6.588 17.996 14.108 36.924 22.302 55.819zM959.375 655.515c0 0.193 0.064 0.386 0.064 0.611-0.032 0.643-0.321 1.253-0.386 1.896-0.225 2.057-0.611 4.081-1.221 6.041-0.321 0.964-0.675 1.864-1.060 2.764-0.739 1.735-1.639 3.342-2.667 4.885-0.611 0.836-1.093 1.671-1.767 2.442-1.221 1.51-2.635 2.796-4.178 4.081-0.675 0.578-1.318 1.253-2.057 1.767-0.193 0.096-0.289 0.289-0.482 0.418-2.217 1.478-4.628 2.603-7.134 3.439-0.064 0-0.129 0.064-0.193 0.096l-77.318 25.419c-3.567-3.953-7.166-7.713-10.54-11.119-35.349-35.349-94.993-64.785-150.33-86.67l65.846-26.737v-151.68l-91.265-46.018v158.461l-104.505 55.241c26.994 7.263 193.424 54.052 258.466 119.159 19.024 18.96 44.058 48.364 42.419 84.613-1.607 36.153-26.865 57.33-47.175 74.33-5.817 4.852-11.987 9.994-17.932 15.843-5.881 5.881-10.99 12.083-15.875 17.932-16.71 19.924-39.495 47.239-77.64 47.239-34.835 0-63.082-24.23-81.271-42.451-65.203-65.203-111.96-231.922-119.191-258.659-7.198 26.64-53.988 193.456-119.223 258.659-18.189 18.253-46.436 42.483-81.239 42.483-38.145 0-60.961-27.315-77.672-47.239-4.852-5.817-9.962-12.019-15.843-17.9s-12.115-10.99-17.9-15.875c-20.342-17.032-45.6-38.177-47.207-74.362-1.607-36.217 23.427-65.653 42.419-84.613 65.075-65.139 231.697-111.928 258.563-119.159l-104.569-55.241v-158.461l-91.265 46.018v151.68l65.91 26.769c-55.402 21.916-115.11 51.353-150.394 86.67-3.374 3.374-6.941 7.166-10.54 11.119l-77.286-25.419c-0.064 0-0.129-0.064-0.193-0.064-2.442-0.836-4.852-1.992-7.134-3.471-0.193-0.096-0.289-0.289-0.482-0.418-0.771-0.546-1.382-1.189-2.089-1.767-1.51-1.285-2.924-2.571-4.145-4.049-0.675-0.771-1.189-1.607-1.767-2.474-1.028-1.543-1.928-3.181-2.667-4.885-0.386-0.932-0.771-1.832-1.060-2.796-0.643-1.96-0.996-3.953-1.189-6.041-0.096-0.643-0.386-1.221-0.418-1.896 0-0.193 0.064-0.386 0.064-0.611 0-0.257-0.096-0.514-0.096-0.771v-139.725c0-11.633 6.556-22.238 16.903-27.444l416.67-209.813c0.45-0.225 0.9-0.129 1.382-0.321 3.953-1.767 8.162-2.956 12.469-2.956s8.516 1.189 12.469 2.956c0.514 0.193 0.932 0.096 1.382 0.321l416.702 209.813c10.316 5.238 16.871 15.843 16.871 27.444v139.725c0.064 0.225-0.032 0.514-0.032 0.771zM663.857 884.867c60.029 60.029 73.044 13.85 109.614-22.688 36.506-36.538 82.653-49.553 22.623-109.582-59.997-60.029-240.053-107.815-240.053-107.815s47.753 180.056 107.815 240.085zM250.625 862.211c36.538 36.506 49.553 82.685 109.582 22.656 60.061-60.061 107.815-240.085 107.815-240.085s-180.056 47.753-240.085 107.783c-60.029 60.029-13.818 73.076 22.688 109.647z" />
<glyph unicode="&#xe933;" glyph-name="molecule" d="M954.333 75.335c-13.208 0-25.569-3.696-36.105-10.105l-281.907 281.91c-0.491 0.491-1.011 0.931-1.544 1.347 22.088 27.197 35.358 61.829 35.358 99.514 0 37.636-13.237 72.224-35.272 99.405l192.167 192.167c20.63-15.712 46.35-25.067 74.223-25.067 67.684 0 122.747 55.064 122.747 122.747s-55.064 122.747-122.747 122.747-122.747-55.064-122.747-122.747c0-27.874 9.355-53.593 25.067-74.221l-192.167-192.167c-27.181 22.033-61.77 35.269-99.405 35.269s-72.224-13.237-99.405-35.272l-88.739 88.739c6.409 10.536 10.105 22.897 10.105 36.105 0 38.414-31.253 69.667-69.667 69.667s-69.667-31.253-69.667-69.667 31.253-69.667 69.667-69.667c13.208 0 25.569 3.696 36.105 10.105l88.739-88.739c-22.035-27.181-35.272-61.77-35.272-99.405 0-21.347 4.275-41.708 11.976-60.303l-211.002-114.292c-16.035 19.491-40.33 31.943-67.48 31.943-48.17 0-87.361-39.191-87.361-87.361s39.191-87.361 87.361-87.361 87.361 39.191 87.361 87.361c0 9.15-1.42 17.972-4.041 26.266l211.010 114.297c28.539-41.444 76.294-68.683 130.309-68.683 6.060 0 12.031 0.376 17.917 1.044l21.991-98.956c-22.968-11.401-38.801-35.097-38.801-62.433 0-38.414 31.253-69.667 69.667-69.667s69.667 31.253 69.667 69.667c0 37.906-30.435 68.816-68.148 69.63l-21.993 98.965c18.078 6.082 34.708 15.327 49.216 27.108 0.416-0.533 0.856-1.053 1.347-1.544l281.907-281.907c-6.409-10.536-10.105-22.897-10.105-36.105 0-38.414 31.253-69.667 69.667-69.667s69.667 31.253 69.667 69.667-31.253 69.667-69.667 69.667zM87.361 163.801c-29.877 0-54.186 24.308-54.186 54.186s24.308 54.186 54.186 54.186 54.186-24.308 54.186-54.186-24.308-54.186-54.186-54.186zM619.266 129.521c0-20.122-16.371-36.492-36.492-36.492s-36.492 16.371-36.492 36.492 16.371 36.492 36.492 36.492 36.492-16.371 36.492-36.492zM901.253 926.825c49.391 0 89.572-40.181 89.572-89.572s-40.181-89.572-89.572-89.572-89.572 40.181-89.572 89.572 40.181 89.572 89.572 89.572zM227.801 695.706c0 20.122 16.371 36.492 36.492 36.492s36.492-16.371 36.492-36.492-16.371-36.492-36.492-36.492-36.492 16.371-36.492 36.492zM512 323.041c-68.902 0-124.959 56.057-124.959 124.959s56.057 124.959 124.959 124.959 124.959-56.057 124.959-124.959-56.057-124.959-124.959-124.959zM954.333-30.825c-20.122 0-36.492 16.371-36.492 36.492s16.371 36.492 36.492 36.492 36.492-16.371 36.492-36.492-16.371-36.492-36.492-36.492zM512 535.361c-9.161 0-16.587-7.427-16.587-16.587s7.427-16.587 16.587-16.587c29.877 0 54.186-24.308 54.186-54.186 0-9.161 7.427-16.587 16.587-16.587s16.587 7.427 16.587 16.587c0 48.17-39.191 87.361-87.361 87.361zM901.253 856.052c10.366 0 18.799-8.433 18.799-18.799 0-9.161 7.427-16.587 16.587-16.587s16.587 7.427 16.587 16.587c0 28.659-23.315 51.974-51.974 51.974-9.161 0-16.587-7.427-16.587-16.587s7.427-16.587 16.587-16.587z" />
<glyph unicode="&#xe934;" glyph-name="heartbeat2" d="M1023.129 625.090c-0.333 4.331-0.777 8.663-1.333 12.883-17.881 140.939-151.046 237.786-286.987 237.786-25.656 0-51.532-3.443-76.634-10.773-58.975-17.104-108.842-54.088-146.159-101.845-37.317 47.757-87.074 84.741-146.159 101.845-25.101 7.33-50.978 10.773-76.634 10.773-135.941 0-268.995-96.736-286.987-237.675-0.555-4.331-1-8.552-1.333-12.883-4.998-63.418 11.106-124.835 39.538-180.7h185.698l71.636 181.81c4.665 11.995 16.326 19.658 29.211 19.325 12.883-0.333 24.1-8.663 28.099-20.88l69.97-210.798 15.992-48.312 22.88 48.312 69.97 147.936c4.998 10.439 15.437 17.215 27.098 17.437 0.222 0 0.334 0 0.555 0 11.441 0 21.879-6.331 27.099-16.548l61.307-118.393h333.412c28.654 55.865 44.646 117.394 39.761 180.7zM604.421 399.854l-7.219 13.995-34.207 66.083-31.32-66.083-67.749-143.271c-5.11-10.663-15.882-17.437-27.544-17.437-0.667 0-1.223 0-1.888 0.111-12.439 0.777-23.212 8.997-27.099 20.88l-46.424 139.829-37.095 111.618-43.981-111.618-4.443-11.217c-4.554-11.662-15.882-19.325-28.432-19.325h-169.149c16.659-23.323 35.207-45.092 54.865-65.194 89.739-91.627 202.579-154.821 302.869-233.344 25.432-19.991 54.754-40.538 76.411-64.639 21.657 24.101 50.979 44.758 76.411 64.639 100.29 78.522 213.13 141.717 302.869 233.344 19.658 19.991 38.206 41.871 54.865 65.194h-314.643c-11.44-0.112-21.878 6.329-27.098 16.436z" />
</font>
</defs>
</svg>
